<?xml version="1.0" encoding="UTF-8" standalone="no"?>
<!-- Created with Inkscape (http://www.inkscape.org/) -->

<svg
   xmlns:dc="http://purl.org/dc/elements/1.1/"
   xmlns:cc="http://creativecommons.org/ns#"
   xmlns:rdf="http://www.w3.org/1999/02/22-rdf-syntax-ns#"
   xmlns:svg="http://www.w3.org/2000/svg"
   xmlns="http://www.w3.org/2000/svg"
   xmlns:sodipodi="http://sodipodi.sourceforge.net/DTD/sodipodi-0.dtd"
   xmlns:inkscape="http://www.inkscape.org/namespaces/inkscape"
   width="1052.3622"
   height="744.09448"
   id="svg2"
   version="1.1"
   inkscape:version="0.48.4 r9939"
   sodipodi:docname="Nuovo documento 1.2013_01_28_17_34_06.0.svg">
  <defs
     id="defs4" />
  <sodipodi:namedview
     id="base"
     pagecolor="#ffffff"
     bordercolor="#666666"
     borderopacity="1.0"
     inkscape:pageopacity="0.0"
     inkscape:pageshadow="2"
     inkscape:zoom="0.60224609"
     inkscape:cx="254.58354"
     inkscape:cy="554.18368"
     inkscape:document-units="px"
     inkscape:current-layer="layer1"
     showgrid="false"
     inkscape:window-width="1920"
     inkscape:window-height="1080"
     inkscape:window-x="0"
     inkscape:window-y="0"
     inkscape:window-maximized="0" />
  <metadata
     id="metadata7">
    <rdf:RDF>
      <cc:Work
         rdf:about="">
        <dc:format>image/svg+xml</dc:format>
        <dc:type
           rdf:resource="http://purl.org/dc/dcmitype/StillImage" />
      </cc:Work>
    </rdf:RDF>
  </metadata>
  <g
     inkscape:label="Livello 1"
     inkscape:groupmode="layer"
     id="layer1"
     transform="translate(0,-308.2677)">
    <path
       style="fill:#f9f9f9"
       id="path2985"
       d="m -639.52883,71.940714 c -6.21232,-10.345857 -8.76455,-15.099286 -16.79106,-25.571584 -25.25434,-32.949693 -54.84251,-62.614944 -83.91767,-92.115258 -55.48183,-54.721122 -113.65808,-106.625202 -173.01847,-157.080742 -10.17606,-8.25689 -20.35212,-16.51377 -30.52818,-24.77065 -0.11442,-0.0962 0.2534,-0.53354 0.36781,-0.43731 l 0,0 c 10.1788,8.25923 20.3576,16.51846 30.5364,24.77769 59.37081,50.46481 117.55746,102.37819 173.04893,157.109393 22.16988,22.494244 27.59317,27.500891 48.3806,50.4656166 22.53937,24.9001784 15.58716,17.9547214 35.57448,41.6914134 6.54878,7.777262 13.38886,15.446846 20.13363,23.073337 0.74776,0.990652 -3.0387,3.848746 -3.78647,2.858094 z"
       inkscape:connector-curvature="0" />
    <path
       style="fill:#000000"
       id="path3373"
       d="m 502.12955,293.8742 c 8.40772,-3.53349 17.33103,-5.40148 26.28685,-6.89396 9.37581,-1.20246 19.13213,-1.84598 28.37399,0.66197 1.6181,0.43911 3.16903,1.09615 4.75355,1.64422 7.37887,3.24724 13.12458,8.92627 16.1522,16.44732 0.59339,1.47409 0.96532,3.02793 1.44799,4.5419 1.75796,8.4074 0.81565,17.0674 -2.40341,25.02237 -0.69612,1.72025 -1.58369,3.35668 -2.37554,5.03502 -5.2439,9.49893 -12.94661,17.19408 -22.1594,22.89184 -2.02923,1.25501 -4.21011,2.24637 -6.31517,3.36956 -12.57671,5.74913 -26.25598,8.53195 -40.03323,9.14812 -3.04913,0.13637 -6.10392,0.072 -9.15587,0.10799 -15.77707,0.0456 -31.69768,-1.3037 -46.97089,-5.47311 -2.68321,-0.73249 -5.29415,-1.70783 -7.94122,-2.56175 -7.95837,-3.41185 -16.4595,-8.26378 -18.63457,-17.42508 -1.27897,-5.38697 -0.1468,-7.59909 0.99972,-12.91071 1.08153,-2.32825 1.96393,-4.7598 3.24459,-6.98473 6.56908,-11.41271 17.25864,-20.56219 28.36796,-27.35268 2.98774,-1.82624 6.20947,-3.23876 9.3142,-4.85813 9.86188,-3.70872 9.82245,-4.24844 20.24934,-5.96156 3.45816,-0.56817 6.96433,-0.79055 10.44649,-1.18582 0,0 -0.0401,0.2973 -0.0401,0.2973 l 0,0 c -3.49823,0.78461 -7.0444,1.3798 -10.49469,2.35382 -7.99299,2.25644 -12.26772,4.3792 -19.85037,7.63263 -3.01053,1.68561 -6.09042,3.25291 -9.03158,5.05683 -9.93816,6.09543 -19.08826,14.36105 -25.09558,24.45144 -1.21086,2.03386 -2.06298,4.2609 -3.09447,6.39135 -1.14589,4.526 -2.22544,6.568 -1.361,11.21164 1.57987,8.48685 9.51277,12.89227 16.63048,16.18115 2.53098,0.93194 5.02119,1.9831 7.59292,2.79584 8.87066,2.80336 18.03062,4.23754 27.23581,5.38256 3.14865,0.39166 6.29681,0.80758 9.45999,1.05595 3.10178,0.24356 6.21639,0.27934 9.32458,0.41901 3.0472,-0.13977 6.10047,-0.18156 9.14158,-0.41931 13.60007,-1.06324 27.0922,-4.0524 39.43132,-9.97024 3.99071,-2.21531 7.05058,-3.70197 10.63767,-6.39848 6.32212,-4.75251 11.61192,-10.66378 15.50466,-17.55342 0.8036,-1.61256 1.68464,-3.18879 2.41079,-4.83768 3.3643,-7.63934 4.8401,-15.84516 3.11344,-24.09115 -0.44283,-1.45266 -0.77399,-2.94417 -1.32848,-4.35797 -2.83136,-7.21917 -8.4121,-12.44266 -15.42284,-15.55128 -1.5306,-0.50969 -3.0324,-1.11581 -4.59181,-1.52905 -9.07853,-2.40577 -18.62451,-1.72232 -27.82349,-0.53895 -8.83964,1.4947 -17.58519,3.46728 -25.96423,6.72589 0,0 -0.0321,-1.97066 -0.0321,-1.97066 z"
       inkscape:connector-curvature="0"
       transform="translate(0,308.2677)" />
    <path
       style="fill:#000000"
       id="path3375"
       d="m 684.78362,100.67414 c 8.01683,-3.166416 16.36669,-5.253365 24.77832,-7.045571 9.84504,-1.8274 19.83728,-3.203819 29.87227,-3.160645 2.038,0.0088 4.07366,0.139295 6.1105,0.208942 9.64221,0.763956 19.28944,3.035504 27.51073,8.343565 1.47417,0.951795 2.80847,2.104489 4.21271,3.156729 4.59644,4.27257 8.50748,9.56965 9.04255,16.04289 0.3387,4.09763 -0.33861,5.06204 -1.47504,8.97188 -0.83108,1.5055 -1.53265,3.09015 -2.49325,4.51651 -5.20284,7.72554 -13.64248,13.82896 -21.69682,18.2388 -2.398,1.31293 -4.90776,2.41054 -7.36164,3.61581 -13.03381,5.55452 -26.89494,9.24527 -41.06079,10.22307 -2.62999,0.18153 -5.2704,0.14888 -7.90559,0.22333 -8.92439,-0.42925 -18.08809,-1.52312 -25.89941,-6.2371 -4.30561,-2.59835 -4.64611,-3.51739 -7.8687,-7.15395 -0.73762,-1.47183 -1.68509,-2.85606 -2.21286,-4.41549 -2.50887,-7.41304 0.38354,-15.19462 4.02053,-21.66351 1.15555,-2.0553 2.53695,-3.97519 3.80543,-5.96279 6.50285,-8.67473 13.97226,-17.03212 23.35199,-22.708821 2.30716,-1.396317 11.29786,-5.092742 13.77424,-6.139745 0,0 0.0151,0.299621 0.0151,0.299621 l 0,0 c -2.28217,1.113753 -4.6864,2.006085 -6.8465,3.341258 -2.28974,1.415299 -4.31535,3.219533 -6.4406,4.871583 -7.79285,6.057724 -14.98113,12.867404 -20.66842,20.986684 -4.56621,7.12767 -10.58461,16.0813 -7.73788,25.0588 0.42603,1.34355 1.24299,2.53013 1.86449,3.79519 1.00184,1.15015 1.8816,2.41929 3.00553,3.45046 5.67675,5.20829 13.82231,8.03356 21.28961,9.26114 2.37283,0.39007 4.7854,0.47941 7.1781,0.71912 2.56154,0.0324 5.12448,0.18759 7.68463,0.0971 14.04499,-0.49645 27.8327,-4.23424 40.4537,-10.32473 9.64686,-5.26792 19.89034,-10.93935 26.51997,-20.03782 0.93651,-1.28527 1.631,-2.73052 2.4465,-4.09579 1.17717,-3.41924 1.88179,-4.39551 1.72489,-8.04978 -0.26186,-6.09865 -3.8074,-11.04202 -8.14684,-15.01408 -1.34379,-1.00126 -2.62461,-2.09312 -4.03138,-3.00377 -7.95422,-5.148999 -17.40393,-7.280807 -26.73093,-8.022896 -2.00232,-0.063 -4.00365,-0.186669 -6.00695,-0.189013 -9.9332,-0.01162 -19.82024,1.404592 -29.55388,3.27014 -8.30845,1.85055 -16.56748,4.010129 -24.46929,7.222119 0,0 -0.055,-2.68924 -0.055,-2.68924 z"
       inkscape:connector-curvature="0"
       transform="translate(0,308.2677)" />
    <path
       style="fill:#000000"
       id="path3377"
       d="m 263.45945,400.08585 c 10.47562,-1.3086 21.03129,-1.72775 31.57761,-1.90853 13.37942,-0.0201 26.96694,0.77868 39.866,4.62918 2.39655,0.71539 4.71536,1.66918 7.07304,2.50377 7.42223,3.37008 15.06743,7.8423 18.69986,15.54612 2.08055,4.41253 1.67079,5.68277 1.89997,10.44639 -0.36942,1.84214 -0.5373,3.73645 -1.10825,5.52641 -2.82393,8.85316 -9.73818,16.06849 -16.72593,21.85252 -2.57518,2.13158 -5.30567,4.06826 -7.95851,6.10239 -12.79786,8.72498 -26.90643,15.70314 -42.05585,19.2314 -2.95376,0.68792 -5.96485,1.10105 -8.94727,1.65157 -11.9609,1.56459 -24.04055,0.98705 -35.76343,-1.88157 -7.4544,-1.8241 -9.86308,-2.98389 -17.00669,-5.68854 -11.64466,-5.3401 -24.3936,-12.23244 -32.13,-22.83835 -1.24136,-1.70178 -2.13801,-3.63002 -3.20701,-5.44504 -1.38781,-4.97669 -2.47721,-6.48801 -1.25037,-11.76009 2.77062,-11.90611 14.74694,-18.56934 24.03447,-24.72095 14.58945,-7.75428 30.07171,-14.51277 46.42172,-17.52715 1.70781,-0.31486 22.45233,-2.60831 24.33988,-2.81975 0,0 -0.0519,0.29549 -0.0519,0.29549 l 0,0 c -3.99871,0.44956 -8.05371,0.54303 -11.99614,1.3487 -4.22853,0.86413 -8.30337,2.36166 -12.42503,3.64196 -15.78254,4.90248 -31.39809,10.63444 -45.63327,19.15415 -7.58624,4.88928 -17.08737,10.71213 -19.92515,19.95994 -1.32752,4.32615 -0.47374,5.64855 0.43119,9.90838 0.90645,1.67362 1.64046,3.45285 2.71935,5.02087 5.44838,7.91851 14.6001,14.14937 22.90459,18.68705 2.49233,1.36184 5.09735,2.50644 7.64603,3.75966 2.70142,1.04833 5.35681,2.22401 8.10426,3.145 13.89167,4.65671 28.68696,6.16149 43.21083,4.29019 2.9078,-0.55448 5.84343,-0.97899 8.72341,-1.66345 14.8542,-3.53024 28.64039,-10.45041 41.15273,-19.08847 1.82168,-1.36005 3.71056,-2.63444 5.46504,-4.08013 6.62885,-5.46216 13.22544,-12.11374 16.22271,-20.36539 0.57471,-1.58221 0.81786,-3.26585 1.22678,-4.89878 0.0175,-4.17834 0.44912,-5.33917 -1.2347,-9.28517 -3.16753,-7.42306 -10.28372,-11.56454 -17.25569,-14.79479 -6.32871,-2.30078 -7.62753,-3.00098 -14.32174,-4.48181 -10.40699,-2.30213 -21.11547,-2.88553 -31.7416,-2.90648 -10.49955,0.25483 -20.98507,0.82455 -31.42103,2.05166 0,0 0.44005,-2.59836 0.44005,-2.59836 z"
       inkscape:connector-curvature="0" />
    <path
       style="fill:#000000"
       id="path3379"
       d="m 466.82938,331.69613 c -2.17299,0.7265 -4.047,2.00405 -5.83825,3.39326 -0.18869,0.14635 0.71748,-0.62538 0.56226,-0.44392 -0.24796,0.28987 -0.56253,0.51537 -0.8438,0.77305 -0.34265,0.40349 -0.51197,0.5004 -0.67382,0.91976 -0.0309,0.0801 0.15441,-0.12421 0.23699,-0.10078 0.54131,0.1536 1.04785,0.41085 1.57745,0.60092 2.57328,0.92643 5.34435,1.31233 7.53025,3.02925 0.26768,0.43945 0.65023,0.82701 0.80303,1.31836 1.26039,4.05278 -3.87193,6.97704 -6.38832,8.83496 -2.25551,1.11547 -4.66075,2.53341 -7.25922,2.60841 -0.7925,0.0229 -1.73279,-0.24644 -2.50295,-0.43059 -0.57251,-1.43656 -0.16577,-0.99565 -0.84825,-1.58715 0,0 0.21262,-0.21165 0.21262,-0.21165 l 0,0 c 0.54741,0.57734 0.14403,0.28764 1.05003,-1.05695 0.77628,-0.45107 1.51534,-0.96638 2.30578,-1.39215 2.01119,-1.08331 4.28161,-1.67214 6.14424,-3.04285 -0.12625,0.14726 -0.55283,0.52737 -0.37876,0.44178 1.23072,-0.60512 2.01253,-2.05009 3.44093,-1.94623 -1.41091,-1.8089 -4.44804,-1.71723 -6.40211,-2.51539 -3.42221,-1.39086 -5.36624,-3.12866 -3.42037,-6.91937 2.65039,-3.59879 6.69054,-5.9093 10.76889,-7.55453 0,0 -0.0766,5.28181 -0.0766,5.28181 z"
       inkscape:connector-curvature="0"
       transform="translate(0,308.2677)" />
    <path
       style="fill:#000000"
       id="path3381"
       d="m 481.08381,331.52499 c -2.80971,2.40338 -4.82331,5.20446 -4.7794,9.00012 0.75094,3.09586 3.64975,1.97828 5.77908,1.01405 2.77396,-1.71015 4.37747,-4.55886 5.1709,-7.67554 0.2479,-3.73939 -2.06158,-3.98975 -5.17712,-3.76369 -3.40054,0.71827 -6.27391,2.53316 -8.67033,4.98203 0,0 -0.29917,-0.0223 -0.29917,-0.0223 l 0,0 c -0.0394,-1.15706 -0.26605,-2.66694 0.4565,-3.72491 2.24118,-3.28156 5.80342,-5.03602 9.61691,-5.53921 0.81772,0.0379 1.64592,-0.0221 2.45315,0.11384 4.06665,0.68472 6.22145,3.84761 5.76791,7.84917 -1.37976,5.41207 -4.1661,8.91224 -9.29858,11.41096 -0.69453,0.22822 -1.36793,0.53532 -2.08358,0.68465 -2.64235,0.55138 -5.4166,-0.21259 -6.68252,-2.77797 -0.27761,-0.56258 -0.36192,-1.20135 -0.54288,-1.80202 -0.007,-0.66489 -0.0887,-1.33318 -0.0211,-1.99467 0.36358,-3.56096 2.40022,-6.71586 4.71179,-9.32505 0,0 3.59845,1.57056 3.59845,1.57056 z"
       inkscape:connector-curvature="0"
       transform="translate(0,308.2677)" />
    <path
       style="fill:#000000"
       id="path3383"
       d="m 498.19702,327.51442 c -2.01168,2.1474 -4.04399,4.61563 -4.17199,7.67988 0.0591,0.10344 0.0588,0.2981 0.17729,0.31033 0.24331,0.0251 0.0732,-0.5084 0.22864,-0.69729 0.17105,-0.20788 0.42333,-0.33293 0.62809,-0.50771 1.01904,-0.86986 1.35927,-0.74205 0.79345,-0.87867 1.91307,-2.09289 3.6164,-4.54242 3.91858,-7.42424 -0.33188,-2.72384 -2.28806,-0.12555 2.62464,-2.85858 2.16064,3.47148 4.79551,6.6255 7.21318,9.92084 3.00708,4.27957 5.98399,9.22638 5.3039,14.69716 -0.12653,1.01778 -0.48749,1.99245 -0.73124,2.98867 -2.1191,4.90695 -6.5286,9.9731 -12.06242,10.93183 -0.6976,0.12086 -1.41581,0.0223 -2.12372,0.0335 -2.37799,-0.51677 -2.75151,-2.04226 -3.13965,-4.15706 0,0 0.25304,-0.16115 0.25304,-0.16115 l 0,0 c 0.31014,0.17806 0.57283,0.53818 0.93044,0.53418 0.0343,-3.8e-4 2.41563,-1.1099 2.44666,-1.12431 0.94251,-0.48479 2.30652,-1.16582 3.18495,-1.7117 0.62256,-0.38688 1.16665,-0.90015 1.81652,-1.23915 0.0888,-0.0463 -0.0972,0.35909 -0.0163,0.30006 1.76771,-1.28939 2.04216,-1.87796 3.37143,-3.57223 0.33789,-0.70779 0.76536,-1.3794 1.01368,-2.12335 1.55894,-4.67043 -0.9321,-9.20042 -3.35909,-13.04488 -2.1468,-3.01061 -1.377,-2.02599 -3.62451,-4.81744 -1.3224,-1.64245 -2.9733,-3.28178 -4.01747,-5.13291 -0.2734,-0.48468 -0.43771,-1.02325 -0.65656,-1.53488 1.04437,-0.96483 1.92398,-2.14641 3.13311,-2.89449 0.26211,-0.16217 0.55601,0.27437 0.80234,0.45964 1.24069,0.93317 1.72174,2.39541 1.84129,3.88467 -0.22959,3.66884 -2.14605,6.71103 -4.5366,9.42884 -1.89948,1.69799 -6.30353,6.23443 -8.75425,2.37027 -0.24837,-0.39161 -0.26783,-0.88794 -0.40175,-1.33191 0.0218,-0.48709 -0.0224,-0.98167 0.0654,-1.46128 0.54633,-2.98401 2.63428,-5.59033 4.24915,-8.05156 0,0 3.59979,1.18491 3.59979,1.18491 z"
       inkscape:connector-curvature="0"
       transform="translate(0,308.2677)" />
    <path
       style="fill:#000000"
       id="path3385"
       d="m 523.50118,320.46771 c -1.65155,1.28622 -3.74915,3.21376 -5.27242,5.73113 -0.81678,1.99561 1.02151,2.06686 2.59525,2.35442 2.7313,0.24326 5.44273,-0.35776 7.16108,-2.5984 -0.40077,0.30272 -0.74379,0.70316 -1.2023,0.90816 -0.006,0.003 0.35372,-0.37888 0.28923,-0.98101 -0.0872,-0.81432 -0.72833,-1.32267 -1.27623,-1.84552 -2.49969,-1.84313 -5.42334,-1.94234 -8.37278,-1.45265 -1.45934,0.15164 -2.64597,1.1899 -3.97639,1.63558 -0.11742,0.0393 -0.24484,-0.16494 -0.35519,-0.10878 -0.53044,0.26995 -0.97172,0.68754 -1.45757,1.03131 0,0 -0.29829,-0.032 -0.29829,-0.032 l 0,0 c -0.0845,-0.51865 -0.41393,-1.05553 -0.25356,-1.55595 0.9926,-3.09728 4.12075,-5.24373 7.07774,-6.07912 4.51991,-0.67217 8.28536,-0.25636 11.81082,2.89541 1.49504,1.82549 2.77629,3.75262 2.36838,6.24957 -0.089,0.54492 -0.17866,1.13022 -0.50018,1.57909 -0.74079,1.03422 -1.74611,1.85057 -2.61917,2.77585 -3.16494,1.93585 -6.65073,2.6788 -10.34858,2.05087 -4.09907,-1.04888 -6.77306,-2.84882 -5.59297,-7.51256 1.97404,-4.27183 5.51784,-7.35352 9.24366,-10.13879 0,0 0.97947,5.09336 0.97947,5.09336 z"
       inkscape:connector-curvature="0"
       transform="translate(0,308.2677)" />
    <path
       style="fill:#000000"
       id="path3387"
       d="m 548.75123,315.86327 c -2.95573,0.0383 -6.27909,-0.37032 -8.65918,1.68844 0.48885,-0.32382 0.8916,-0.85626 1.46654,-0.97147 0.37159,-0.0745 -0.55581,0.52291 -0.77409,0.83272 -1.23584,1.75403 -1.373,3.9085 -1.47269,5.97139 0.32755,2.50701 0.65132,3.50214 3.19932,3.42897 0.95648,-0.31159 1.70021,-0.43855 2.45701,-1.19983 2.33176,-2.34557 3.29283,-5.84844 4.0116,-8.95318 0.891,-4.41569 0.36482,-8.8668 0.0195,-13.30123 -0.35494,-1.08452 0.0591,-2.76759 -0.58463,-3.78728 -0.0542,-0.0858 -0.0707,0.30607 0.0307,0.30275 1.62478,-0.0532 3.23663,-0.30844 4.85494,-0.46265 -0.6271,5.32576 0.0477,10.69712 0.86307,15.96239 0.55654,2.72397 1.16635,5.50356 2.43873,8.00314 0.26908,0.52861 0.6128,1.01684 0.95235,1.50319 0.21891,0.31354 0.62186,0.52329 0.72042,0.89277 0.1347,0.50494 -0.0429,1.04432 -0.0644,1.56648 0.4031,0.0564 0.80621,0.11276 1.20931,0.16914 0,0 -0.0355,0.29789 -0.0355,0.29789 l 0,0 c -0.59504,0.24759 -1.19008,0.49518 -1.78512,0.74277 -0.93467,0.23711 -1.85006,0.85202 -2.80402,0.71133 -0.72916,-0.10754 -1.24915,-0.8193 -1.72789,-1.3797 -2.42305,-2.83636 -2.85587,-7.47948 -3.81197,-10.91019 -0.92199,-5.64536 -1.61707,-11.36501 -1.28968,-17.09662 1.72748,-0.81668 3.36568,-1.858 5.18244,-2.45004 0.26596,-0.0867 0.16973,2.30834 0.16915,2.31853 -0.0533,0.94582 -0.15297,1.88871 -0.18662,2.83582 -0.54877,4.82299 -1.93838,9.49688 -3.48864,14.08557 -1.73324,4.64469 -3.5088,9.42532 -7.15082,12.9535 -0.63397,0.31872 -1.21003,0.79862 -1.90189,0.95618 -3.57729,0.81472 -5.65369,-3.104 -6.39463,-5.87787 -0.10978,-0.70093 -0.28571,-1.39466 -0.32934,-2.1028 -0.13188,-2.14026 0.40799,-6.58163 1.93569,-8.22613 1.06728,-1.14889 2.39785,-2.02149 3.59678,-3.03224 3.72263,-1.58214 7.12121,-1.64563 11.11386,-1.39122 0,0 -1.76028,5.91948 -1.76028,5.91948 z"
       inkscape:connector-curvature="0"
       transform="translate(0,308.2677)" />
    <path
       style="fill:#000000"
       id="path3407"
       d="m 556.88882,280.37441 c 5.44336,-9.65506 11.93815,-18.65313 18.3772,-27.6553 10.45979,-14.43184 21.52806,-28.44379 33.69232,-41.48525 2.41211,-2.58606 4.91345,-5.08743 7.37018,-7.63114 10.50528,-10.51782 21.85998,-20.13079 33.26287,-29.64944 0.41292,-1.64465 3.10271,-1.68187 3.72569,-3.19451 0.2326,-0.56478 -0.93238,0.79433 -1.44343,1.12886 -0.27168,0.17785 0.48043,-0.43694 0.72047,-0.65561 0.67204,-0.61218 0.36411,-0.31656 0.97805,-0.93771 1.32467,-1.42111 2.83695,-2.64836 4.27781,-3.94914 2.10955,-1.87606 4.26169,-3.71191 6.21961,-5.74912 0.61908,-0.67649 1.21028,-1.37847 1.77017,-2.10461 1.81608,-2.38575 -1.35453,-3.02276 8.33073,1.52756 0.39401,0.18511 -0.25016,0.83399 -0.38181,1.24893 -0.17491,0.55126 -0.35856,1.09971 -0.53784,1.64957 -1.51947,4.73782 -2.37534,9.64419 -3.12165,14.55196 -0.3657,2.16208 -0.22439,3.24877 -1.82061,4.79956 -0.18856,0.18319 -0.30273,0.48838 -0.5558,0.55956 -1.0257,0.28851 -2.10629,0.32364 -3.15943,0.48545 0.0801,-0.39913 0.16021,-0.79825 0.24031,-1.19738 0,0 0.25008,-0.16571 0.25008,-0.16571 l 0,0 c 0.32789,0.0151 0.65578,0.0302 0.98366,0.0453 -0.8599,0.37249 -1.69137,0.81905 -2.57969,1.11748 -0.13906,0.0467 -0.30299,-0.0287 -0.42675,-0.10748 -1.54008,-0.97995 -0.83286,-3.21168 -0.79003,-4.68691 0.60754,-5.18724 1.4054,-10.36199 2.73018,-15.42024 0.15032,-0.56158 0.29411,-1.12494 0.45095,-1.68473 0.10057,-0.35898 -0.0514,-1.05939 0.32118,-1.0713 2.77185,-0.0886 5.5154,0.59856 8.2816,0.79634 0.1129,0.008 -0.43161,-1.36917 -0.33308,0.16273 -0.76612,0.7504 -1.56547,1.46576 -2.33246,2.2158 -2.12787,2.04461 -4.30718,4.02427 -6.57554,5.91395 -1.39136,1.24516 -2.79088,2.48443 -4.21372,3.68808 -2.92308,2.85454 -6.11391,5.406 -9.43675,7.78508 -10.05185,7.81958 -19.82765,15.99868 -28.80022,25.06293 -6.60134,6.77009 -8.35455,8.38311 -14.64201,15.59727 -9.13475,10.48111 -17.53238,21.58457 -25.4664,32.99455 -6.03788,8.84906 -12.20563,17.67964 -17.18634,27.18273 0,0 -8.1795,-1.16816 -8.1795,-1.16816 z"
       inkscape:connector-curvature="0"
       transform="translate(0,308.2677)" />
    <path
       style="fill:#000000"
       id="path3409"
       d="m 657.85217,171.34217 c -2.92808,-2.38263 -6.28171,-3.92037 -9.85993,-5.02234 -1.68702,-0.58527 -4.12457,-0.4358 -5.35968,-1.99906 -0.37346,-0.47268 -0.57699,-1.05767 -0.86549,-1.5865 0,0 0.0212,-0.29925 0.0212,-0.29925 l 0,0 c 0.53037,-0.74379 0.92716,-1.60395 1.59113,-2.23138 2.20122,-2.08011 5.4956,-1.45741 8.10315,-0.89906 4.29962,1.28243 8.277,3.2394 11.64465,6.25975 0,0 -5.27506,5.77784 -5.27506,5.77784 z"
       inkscape:connector-curvature="0"
       transform="translate(0,308.2677)" />
    <path
       style="fill:#000000"
       id="path3415"
       d="m 443.07072,296.88623 c -3.20358,-6.1672 -7.25576,-11.8352 -11.24085,-17.51009 -7.8131,-11.03496 -15.6813,-22.031 -23.61168,-32.98197 -7.88459,-11.02691 -16.12336,-21.78994 -24.88939,-32.12973 -2.08805,-2.48408 -4.27962,-4.87724 -6.42696,-7.3093 -0.72057,-0.81612 -1.38132,-1.65052 -2.23363,-2.32974 -0.0707,-0.0373 -0.13228,-0.10629 -0.21199,-0.11194 -0.0327,-0.002 0.008,0.0651 0.0114,0.0977 0.17153,0.11754 0.64359,0.51572 0.51459,0.35263 -2.04344,-2.58357 -1.09044,-0.86517 -1.92739,-2.37874 -1.35269,-2.21489 -2.86175,-4.33556 -4.49411,-6.35241 -1.25116,-1.52477 -2.57304,-2.98892 -3.84996,-4.49163 -1.83934,-2.14547 -3.66972,-4.29856 -5.48739,-6.46242 -2.43528,-3.01773 -5.01864,-5.89136 -7.81605,-8.5759 -2.62444,-2.55485 -5.57352,-4.72849 -8.4911,-6.92849 -1.66629,-1.22085 -3.20365,-2.59944 -4.79537,-3.91166 -0.27513,-0.25003 -0.60804,-0.47807 -0.87129,-0.72607 0.0678,4e-5 0.18279,0.20254 0.2276,0.12793 3.57164,-5.94664 1.09193,-5.15392 5.92731,-4.36693 4.59305,0.60846 9.1839,1.22192 13.76209,1.9346 1.45576,0.37296 5.71873,0.1769 6.06576,2.28407 0.0732,0.44425 -0.053,0.8989 -0.0794,1.34835 0.0807,0.0841 0.16145,0.1682 0.24217,0.2523 0,0 -0.15728,0.14234 -0.15728,0.14234 l 0,0 c -0.0631,-0.07 -0.12616,-0.13996 -0.18924,-0.20994 -0.31185,0.33945 -0.58397,0.72025 -0.93554,1.01837 -1.88322,1.5969 -4.68225,0.17249 -6.78175,0.003 -4.57207,-0.70914 -9.15665,-1.31455 -13.75961,-1.78752 -0.87691,-0.10468 -1.75312,-0.21519 -2.63011,-0.31917 -0.2134,-0.0253 -0.69941,0.13683 -0.64087,-0.0699 1.61244,-5.69562 0.54541,-5.83522 2.38225,-4.83529 0.47456,0.26337 0.9042,0.59597 1.33868,0.91948 1.57526,1.27145 3.00431,2.72188 4.62601,3.93997 2.98517,2.35985 6.02896,4.6571 8.74345,7.33614 2.83482,2.82112 5.48815,5.80683 8.02623,8.8982 1.81893,2.15852 3.68083,4.27981 5.5271,6.41468 1.30767,1.55239 2.63878,3.08577 3.8607,4.70805 1.64084,2.22271 3.23782,4.47645 4.73249,6.80089 0.49797,0.83122 2.16953,3.13229 -0.55464,0.43043 -0.33318,-0.33045 1.64797,1.12486 1.28552,1.00894 2.96511,3.31849 6.11921,6.47132 8.84941,9.99915 8.56541,10.5904 16.61931,21.57514 24.73989,32.50715 8.04285,10.88227 16.11743,21.74126 24.09909,32.6686 4.15154,5.7445 8.30363,11.5052 11.81229,17.67473 0,0 -4.69837,2.92074 -4.69837,2.92074 z"
       inkscape:connector-curvature="0"
       transform="translate(0,308.2677)" />
    <path
       style="fill:#000000"
       id="path3419"
       d="m 342.40996,166.93519 c -0.14768,5.18553 0.0653,10.37302 0.0815,15.55954 -0.29143,3.58691 0.0501,5.74287 -3.21572,7.76031 0,0 -0.29341,0.0625 -0.29341,0.0625 l 0,0 c -0.38626,-0.0717 -0.78887,-0.0828 -1.15877,-0.21516 -2.23097,-0.79815 -1.96178,-4.2637 -2.27695,-6.07976 -0.19094,-5.19256 -0.26897,-10.38868 -0.47829,-15.58042 0,0 7.34166,-1.50702 7.34166,-1.50702 z"
       inkscape:connector-curvature="0"
       transform="translate(0,308.2677)" />
    <path
       style="fill:#000000"
       id="path3421"
       d="m 716.85441,485.70324 c -5.80225,-2.03187 -11.91474,-3.26482 -18.06418,-3.52085 -1.78854,-0.0745 -3.58016,-0.009 -5.37024,-0.014 -10.953,0.57407 -21.46131,4.06349 -30.78511,9.81781 -2.11884,1.30767 -4.10226,2.823 -6.15339,4.23449 -1.92818,1.63663 -3.9411,3.17835 -5.78453,4.90987 -1.18002,1.10839 -2.22892,2.35143 -3.26788,3.59302 -4.26584,5.09782 -8.18385,10.46398 -9.89985,17.00947 -0.46098,1.75836 -0.52482,3.59748 -0.78723,5.39622 0.18256,1.68793 0.13312,3.4174 0.54768,5.06377 1.98804,7.89513 9.04088,13.34881 15.96373,16.80481 2.44396,1.22007 5.04079,2.10631 7.56119,3.15946 16.06835,5.38127 33.12203,6.53354 49.92623,4.94657 3.60199,-0.34017 7.17501,-0.93775 10.76252,-1.40662 15.69397,-2.97864 31.68653,-7.38689 45.00784,-16.57844 2.03452,-1.40378 3.8708,-3.07512 5.8062,-4.61269 4.58178,-5.11821 8.40182,-10.87279 8.89324,-17.92616 0.33278,-4.7764 -0.45487,-6.38992 -1.58778,-11.02378 -0.85722,-1.89877 -1.55726,-3.87665 -2.57166,-5.69631 -4.92557,-8.83573 -12.93669,-15.50581 -21.80958,-20.14432 -2.56486,-1.34084 -5.27873,-2.37497 -7.9181,-3.56246 -15.24924,-6.01973 -31.71563,-6.09225 -47.78996,-7.66177 -1.79972,-0.10668 -3.59944,-0.21337 -5.39916,-0.32006 0,0 0.0483,-0.29608 0.0483,-0.29608 l 0,0 c 1.95047,-0.59156 3.90093,-1.18312 5.8514,-1.77468 6.61847,-1.41841 8.04246,-2.03744 15.04238,-2.17636 12.21862,-0.24249 24.31388,2.43876 35.74514,6.56812 7.11674,3.20812 9.71331,3.96581 16.08993,8.44751 8.6382,6.07122 15.39019,14.18009 19.16547,24.06655 1.4015,5.51053 2.31411,7.30257 1.99455,13.0241 -0.3579,6.40785 -2.94469,12.98568 -7.21507,17.81227 -2.20759,2.49512 -4.83888,4.58055 -7.25833,6.87082 -2.11931,1.50049 -4.15529,3.1262 -6.35793,4.50146 -14.10178,8.80472 -30.4652,13.14179 -46.65158,16.11686 -3.69048,0.481 -7.3658,1.09776 -11.07145,1.44299 -17.45878,1.62651 -35.24354,0.35843 -51.94904,-5.14212 -6.27637,-2.6446 -9.56039,-3.58449 -15.04677,-7.54884 -5.53943,-4.00268 -9.87119,-9.36655 -11.44501,-16.12504 -0.46963,-2.01675 -0.42362,-4.1197 -0.63543,-6.17955 0.28992,-2.11019 0.35815,-4.26292 0.86975,-6.33059 3.2834,-13.2701 13.81633,-23.09734 24.17598,-31.16727 2.19279,-1.43112 4.31814,-2.9713 6.57835,-4.29335 10.03843,-5.87176 21.28176,-9.27231 32.91219,-9.65024 1.90508,0.0365 3.81322,-0.004 5.71524,0.10966 6.53513,0.39179 13.05318,1.75734 19.17414,4.07067 0,0 -3.01221,5.18507 -3.01221,5.18507 z"
       inkscape:connector-curvature="0"
       transform="translate(0,308.2677)" />
    <path
       style="fill:#000000"
       id="path3423"
       d="m 665.60435,488.03308 c -0.1909,8.72213 0.16185,17.4471 0.53982,26.1598 0.32023,6.33964 0.5232,12.71664 1.52028,18.99628 0.40231,2.28802 1.15158,2.43474 -5.22595,1.01683 -0.44848,-0.0997 0.30938,-0.86542 0.44841,-1.30332 0.45315,-1.42725 0.85778,-2.86946 1.28597,-4.30441 1.71183,-5.93721 3.82459,-11.72732 6.68622,-17.2067 2.17367,-3.64582 5.25071,-7.10249 9.67703,-4.61829 1.91102,1.07254 2.63444,2.47429 3.87925,4.18558 2.16682,3.94858 3.49934,8.33482 4.03574,12.80635 0.12633,1.05314 0.27474,2.11702 0.20539,3.17544 -0.0655,0.99972 -0.4042,1.96253 -0.6063,2.9438 -1.61063,2.91287 -1.27511,1.5409 -1.52328,3.95393 0,0 -0.29753,0.0384 -0.29753,0.0384 l 0,0 c 0.23351,-2.1895 0.44958,-1.06481 -1.1912,-3.22266 -0.32032,-0.77473 -0.72059,-1.52104 -0.96094,-2.32418 -0.27408,-0.91585 -0.37421,-1.87505 -0.57541,-2.80962 -0.82287,-3.82219 -1.76577,-7.65955 -3.72452,-11.08474 -0.73707,-1.05706 -1.0338,-1.71447 -1.99726,-2.45416 -0.13141,-0.10089 -0.29233,-0.19475 -0.45799,-0.19306 -0.17623,0.002 -0.5502,0.36775 -0.48829,0.20274 0.16061,-0.42814 1.21527,-1.33323 0.82376,-1.09696 -0.54314,0.32776 -0.86907,0.92435 -1.30361,1.38653 -3.04212,5.02257 -4.72501,10.70111 -6.38632,16.30096 -0.55276,1.9812 -0.69015,2.43028 -1.17541,4.31814 -0.13109,0.50998 0.0805,1.27926 -0.38091,1.53305 -5.77631,3.1774 -6.0517,3.65412 -6.31251,0.20452 0.0475,-6.44558 -0.47629,-12.88171 -0.69411,-19.3202 -0.37134,-8.74836 -0.72009,-17.49753 -1.04023,-26.24792 0,0 5.2399,-1.03614 5.2399,-1.03614 z"
       inkscape:connector-curvature="0"
       transform="translate(0,308.2677)" />
    <path
       style="fill:#000000"
       id="path3425"
       d="m 689.89555,485.70467 c 1.15607,7.49114 2.22908,14.9933 3.22238,22.50798 0.52662,4.06449 0.98599,8.13956 1.36235,12.22091 0.0949,1.02904 0.30117,2.05771 0.252,3.08994 -0.0754,1.58251 -0.59698,3.11232 -0.84999,4.67628 0,0 -0.28883,0.0811 -0.28883,0.0811 l 0,0 c -0.23224,-0.56933 -0.44859,-1.14542 -0.69674,-1.70801 -0.33034,-0.74894 -0.82058,-1.43632 -1.03821,-2.22543 -0.27157,-0.98469 -0.28268,-2.02329 -0.41296,-3.0364 -0.51888,-4.0348 -0.99343,-8.07552 -1.5604,-12.1042 -1.05024,-7.52176 -2.22068,-15.02685 -3.12083,-22.5689 0,0 3.13123,-0.93328 3.13123,-0.93328 z"
       inkscape:connector-curvature="0"
       transform="translate(0,308.2677)" />
    <path
       style="fill:#000000"
       id="path3427"
       d="m 684.11771,503.92913 c 6.07659,-0.27354 12.11755,-1.0411 18.18805,-1.37865 3.10869,0.17957 1.73119,-0.31254 4.17282,1.35818 0,0 -0.0277,0.29871 -0.0277,0.29871 l 0,0 c -2.90871,2.79534 -1.2694,1.76874 -4.8613,3.16844 -6.1071,1.46032 -12.35081,1.93124 -18.58222,2.60319 0,0 1.11039,-6.04987 1.11039,-6.04987 z"
       inkscape:connector-curvature="0"
       transform="translate(0,308.2677)" />
    <path
       style="fill:#000000"
       id="path3429"
       d="m 701.10245,486.80915 c 0.9642,8.80158 1.72155,17.6191 2.24483,26.45744 0.20925,4.41736 0.40057,8.83986 0.23831,13.26245 -0.0625,1.70204 -0.14569,3.90207 -0.62867,5.59106 -0.18689,0.65359 -0.53271,1.25086 -0.79906,1.87628 -0.0777,0.3711 -0.15533,0.7422 -0.233,1.1133 0,0 -0.29386,0.0604 -0.29386,0.0604 l 0,0 c -0.0778,-0.33814 -0.15562,-0.67627 -0.23342,-1.01441 -1.34867,-2.51771 -1.3703,-3.89087 -1.60575,-6.77793 -0.35391,-4.33963 -0.44303,-8.69325 -0.72979,-13.03705 -0.54625,-8.74793 -1.24001,-17.49148 -2.57264,-26.16055 0,0 4.61305,-1.37096 4.61305,-1.37096 z"
       inkscape:connector-curvature="0"
       transform="translate(0,308.2677)" />
    <path
       style="fill:#000000"
       id="path3431"
       d="m 714.44844,511.56965 c 0.64376,5.70693 1.45319,11.39493 2.14989,17.09747 0.50848,3.48923 0.88059,7.01906 1.53522,10.48508 0.0307,0.18486 0.27304,0.50544 0.0922,0.55459 -1.48684,0.40407 -3.03985,0.80159 -4.57441,0.66351 -0.38925,-0.035 -0.27182,-0.73365 -0.37969,-1.10929 -0.47176,-1.64288 -0.68353,-3.3456 -0.92472,-5.0322 -0.74591,-5.49399 -1.03733,-11.01621 -0.63304,-16.54516 0.56096,-4.46982 1.96552,-9.41988 5.81004,-12.23845 1.24618,-0.91362 2.63432,-1.61588 3.95148,-2.42381 4.43784,-1.01804 8.82864,0.61766 10.71959,4.98512 0.36401,0.84072 0.49517,1.7641 0.74276,2.64615 0.39607,4.80696 -1.38886,9.5806 -5.25743,12.61886 -1.30921,1.02822 -2.74129,1.88955 -4.11194,2.83432 -2.6736,0.91248 -6.46106,1.50374 -8.19976,-1.45215 -1.00695,-1.71189 -0.57573,-2.68889 -0.35388,-4.51255 0,0 0.27941,-0.10922 0.27941,-0.10922 l 0,0 c 0.38154,0.39466 0.69405,0.87043 1.14461,1.18399 1.87036,1.30164 4.61371,0.40269 6.35263,-0.5457 -0.54461,0.87136 -0.83588,1.22409 1.35018,-0.83613 1.55501,-1.4655 2.81891,-3.36102 3.40844,-5.42843 0.17483,-0.61308 0.20877,-1.25783 0.31316,-1.88674 -0.0636,-0.56917 -0.0481,-1.15283 -0.19068,-1.70752 -0.71035,-2.76403 -3.31174,-3.75937 -5.86877,-2.96051 0.0263,-1.08708 0.16286,-1.00874 -1.66625,0.63369 -2.42149,2.17435 -3.26278,5.45045 -3.81665,8.5182 -0.44759,5.28834 -0.20188,10.55573 0.55113,15.81159 0.21833,1.5378 0.43199,3.0728 0.73621,4.59644 0.0509,0.25468 0.37914,0.61609 0.16405,0.76164 -1.23334,0.83458 -2.72614,1.20267 -4.05632,1.8722 -0.0582,0.0293 0.11904,0.0531 0.17855,0.0796 0.1536,-1.06453 0.0417,-2.14662 0.031,-3.2205 -0.0244,-2.45962 -0.0638,-4.91932 -0.34809,-7.36711 -0.56451,-5.76629 -1.22997,-11.5222 -1.69586,-17.29798 0,0 2.56694,-0.66901 2.56694,-0.66901 z"
       inkscape:connector-curvature="0"
       transform="translate(0,308.2677)" />
    <path
       style="fill:#000000"
       id="path3433"
       d="m 751.05672,505.58466 c -4.04636,-1.27782 -8.21493,-1.55048 -12.33408,-0.55956 -0.80174,0.40034 -2.25054,0.94932 -2.7413,1.84196 -0.14463,0.26306 0.85162,-0.692 0.80943,-0.39479 -0.0799,0.56272 -0.69462,0.90751 -0.95403,1.41322 -0.73663,1.43605 -0.7393,2.12526 -1.02739,3.70313 -0.11585,2.5433 0.59513,6.01031 3.61527,6.30934 1.73166,-0.0704 0.84492,0.16533 2.57977,-0.95994 0,0 0.28077,0.10567 0.28077,0.10567 l 0,0 c -2.06768,2.66275 -0.91781,1.48558 -3.4212,3.55902 -0.68458,0.0918 -1.3667,0.34664 -2.05375,0.27552 -3.92512,-0.40633 -5.09948,-5.49503 -5.77223,-8.54983 -0.0145,-0.86673 -0.11742,-1.73649 -0.0434,-2.60018 0.46553,-5.43618 4.28624,-8.99856 9.37501,-10.38234 4.87673,-0.81508 9.7528,-0.51171 14.4329,1.19381 0,0 -2.74572,5.04497 -2.74572,5.04497 z"
       inkscape:connector-curvature="0"
       transform="translate(0,308.2677)" />
    <path
       style="fill:#000000"
       id="path3435"
       d="m 750.80561,487.68721 c 0.31007,8.5706 1.24533,17.10089 2.2341,25.61468 0.23046,3.14479 0.82691,6.22947 1.7265,9.24557 0.12562,0.42117 0.37804,0.81459 0.4109,1.25287 0.0125,0.1669 -0.2424,0.25108 -0.28606,0.41265 -0.0765,0.2831 -0.0417,0.58503 -0.0626,0.87755 0,0 -2.8e-4,0.3 -2.8e-4,0.3 l 0,0 c -0.72298,0.55289 -1.28122,1.45784 -2.16894,1.65866 -3.55982,0.80531 -3.82174,-6.52122 -4.11309,-8.21886 -0.22587,-1.31609 -0.46801,-2.62934 -0.70202,-3.94401 -1.27278,-8.55171 -2.24266,-17.14287 -2.92851,-25.76218 0,0 5.88998,-1.43693 5.88998,-1.43693 z"
       inkscape:connector-curvature="0"
       transform="translate(0,308.2677)" />
    <path
       style="fill:#000000"
       id="path3437"
       d="m 654.47155,483.41366 c -1.45481,-10.01757 -16.52188,-40.99353 -20.70901,-50.1245 -7.01276,-14.19943 -16.49853,-27.01191 -27.25416,-38.59238 -2.28914,-2.46469 -4.70551,-4.80809 -7.05826,-7.21213 -10.17806,-9.92755 -21.38787,-18.69709 -32.77916,-27.17203 -1.27935,-0.91206 -7.69632,-5.08529 -6.15945,-7.64489 0.66653,-1.11009 1.88451,-1.7762 2.82676,-2.66431 1.53331,-0.26789 3.05006,0.0819 4.5746,0.1883 0.68408,-0.0566 1.05416,-0.19298 1.42591,0.45749 2.69829,1.98489 5.42086,3.94195 8.1754,5.85005 3.8044,2.7778 8.01251,4.90451 12.06984,7.26671 0.81902,0.47685 1.74385,0.82974 2.41763,1.49623 0.60347,0.59693 0.87023,1.45763 1.30535,2.18645 0.3048,0.53035 0.60959,1.06069 0.91439,1.59104 l -0.1685,0.24821 0,0 c -0.65581,0.0259 -1.31162,0.0518 -1.96743,0.0777 -0.96611,0.0646 -1.94183,0.34434 -2.89833,0.19381 -0.98946,-0.15571 -1.88619,-0.68045 -2.80002,-1.09056 -4.4462,-1.9954 -8.5528,-4.69177 -12.65673,-7.29072 -2.78268,-1.8913 -5.59555,-3.74911 -8.28465,-5.77172 -0.0127,0.48767 0.42297,0.25964 0.14781,-0.056 -0.36052,-0.21238 -1.51073,-0.62203 -1.74236,-0.23478 1.69451,-1.95902 2.3813,-1.44607 1.39262,-3.10568 -0.0302,-0.0507 -0.0627,0.12798 -0.0271,0.17509 0.22417,0.2965 0.49181,0.55999 0.76958,0.80698 0.72679,0.64628 3.7305,2.97154 4.1643,3.31112 11.3386,8.81605 22.73603,17.61151 32.82588,27.88479 5.97682,6.13034 8.56955,8.57894 14.13348,15.14173 8.18396,9.65319 15.4924,20.06935 21.32314,31.31528 4.55034,9.40583 19.93524,40.67696 21.56613,51.08301 z"
       inkscape:connector-curvature="0"
       transform="translate(0,308.2677)"
       sodipodi:nodetypes="ccsccsccccsscccccsscccccccccsccc" />
    <path
       style="fill:#000000"
       id="path3439"
       d="m 574.53279,354.76691 c -0.34224,0.57339 -0.74288,1.11575 -1.02671,1.72018 -3.02272,6.43695 -3.77941,14.211 -5.04977,21.14294 -1.76294,5.66556 -0.69991,2.97242 -3.1382,8.09933 0,0 -0.29659,0.0451 -0.29659,0.0451 l 0,0 c -1.7631,-4.69359 -1.14451,-2.1808 -1.70345,-7.57424 0.65758,-8.43836 1.73873,-17.10518 5.21092,-24.90323 0,0 6.0038,1.46992 6.0038,1.46992 z"
       inkscape:connector-curvature="0"
       transform="translate(0,308.2677)" />
    <path
       style="fill:#000000"
       id="path3441"
       d="m 740.44398,517.52177 c 2.93381,1.38465 6.02462,2.38017 9.15856,3.19359 1.71219,0.4538 3.37236,0.50984 5.0219,-0.13979 1.48409,-0.63295 2.88032,-1.52942 4.49981,-1.74175 1.06149,0.62627 0.54078,0.14413 1.1742,1.77587 0,0 0.0159,0.29958 0.0159,0.29958 l 0,0 c -0.42568,2.16435 -0.0489,1.28467 -0.88386,2.73146 -1.48943,1.29141 -3.33464,2.10471 -5.23141,2.60852 -2.36389,0.41941 -4.66079,0.22738 -6.96328,-0.47993 -3.32173,-0.90647 -6.56533,-2.05074 -9.74508,-3.37265 0,0 2.95328,-4.8749 2.95328,-4.8749 z"
       inkscape:connector-curvature="0"
       transform="translate(0,308.2677)" />
    <path
       style="fill:#000000"
       id="path3443"
       d="m 420.49965,352.68535 c -8.43492,-1.58146 -17.02595,-2.08527 -25.57857,-2.58028 -13.6083,-0.57513 -27.29346,-0.45955 -40.82111,1.28774 -3.22365,0.41638 -6.42409,0.99606 -9.63614,1.49409 -18.68277,3.29545 -36.89133,8.65649 -54.81868,14.77523 -8.47071,3.07278 -16.96276,6.18439 -25.11759,10.03815 -0.40903,0.18455 -0.81925,0.36647 -1.22708,0.55366 -0.25513,0.11709 -0.50799,0.23908 -0.76173,0.35915 -0.14277,0.0676 -0.3055,0.10379 -0.42782,0.20373 -0.0296,0.0242 0.0585,0.1387 0.0554,0.10055 -0.63769,-7.85073 -2.64292,-5.95222 0.1061,-8.08593 4.35418,-3.29527 8.45312,-6.90805 12.55603,-10.50587 6.7459,-5.88511 13.1338,-12.16412 20.15576,-17.72467 1.4119,-1.36245 3.10326,-1.97019 4.87686,-2.68157 0,0 0.46229,2.17478 0.46229,2.17478 l 0,0 c 0.34892,-0.0538 0.83452,-0.44363 1.04676,-0.1615 0.59952,0.79691 -2.41731,2.15292 -1.60844,2.52258 -5.68263,6.69616 -12.27464,12.50981 -18.71804,18.45649 -5.62992,5.14746 -11.28013,10.28537 -17.26334,15.02356 -2.59304,1.94026 -1.13498,1.23564 -2.50573,-6.11017 -0.018,-0.0964 3.06713,-1.08773 3.03002,-1.23888 8.46536,-3.18026 16.87124,-6.52915 25.50275,-9.24974 18.21532,-5.87109 36.6395,-11.28453 55.54653,-14.44435 17.05793,-2.47256 34.23306,-4.17457 51.49638,-3.30039 8.85072,0.3597 17.71532,0.79844 26.48824,2.09335 0,0 -2.83885,7.00029 -2.83885,7.00029 z"
       inkscape:connector-curvature="0"
       transform="translate(0,308.2677)" />
    <path
       style="fill:#000000"
       id="path3515"
       d="m 261.3383,374.71695 c 7.91757,-0.017 15.78802,0.7522 23.62714,1.78986 10.03727,1.51838 19.98151,3.75141 29.50968,7.27692 1.66428,0.81227 3.52705,1.48166 4.81883,2.9078 0.47079,0.51975 0.70708,1.21125 1.06062,1.81688 0,0 -0.15355,0.25773 -0.15355,0.25773 l 0,0 c -3.09727,0.5638 -4.90168,0.4888 -8.03278,-0.33442 -9.7094,-2.27625 -19.38589,-4.79154 -29.30519,-6.01463 -7.7235,-0.91583 -15.4688,-1.43896 -23.25232,-1.24743 0,0 1.72757,-6.45271 1.72757,-6.45271 z"
       inkscape:connector-curvature="0"
       transform="translate(0,308.2677)" />
    <path
       style="fill:#000000"
       id="path3521"
       d="m 198.23907,374.6114 c -7.61281,-3.0824 -15.88785,-2.63991 -23.89635,-1.99582 -13.04397,1.70726 -25.66852,5.80972 -37.49056,11.53912 -2.62217,1.2708 -5.16178,2.70535 -7.74267,4.05802 -10.69663,6.11962 -20.6725,13.51375 -29.113893,22.52399 -1.438778,1.53573 -2.760365,3.1772 -4.140548,4.7658 -5.746265,7.29151 -10.06233,15.77449 -11.051081,25.11633 -0.182977,1.7288 -0.123911,3.4747 -0.185867,5.21205 0.409286,7.15971 2.94143,13.73043 7.664523,19.16918 3.602965,4.14889 5.522011,5.22347 9.969216,8.60532 13.53406,8.71856 29.00815,13.97612 44.79851,16.82652 3.90532,0.70497 7.8562,1.12888 11.7843,1.69332 20.84164,2.16025 41.89106,0.34899 62.10216,-5.15543 3.82926,-1.04288 7.57976,-2.35595 11.36964,-3.53392 12.42496,-4.48616 24.56491,-10.17707 34.85271,-18.5941 2.94079,-2.40602 5.71444,-5.86485 8.16191,-8.66426 4.59816,-6.29291 7.09838,-13.46763 6.78138,-21.30485 -0.20559,-5.08269 -0.94469,-6.84178 -2.21612,-11.77843 -2.90848,-8.50127 -7.55769,-16.24987 -14.15367,-22.41191 -4.74572,-4.4335 -6.30494,-5.0096 -11.84076,-8.42419 -14.23066,-7.42657 -30.19149,-9.92453 -45.86226,-12.39383 -12.20386,-1.44656 -24.15967,-4.23826 -36.18361,-6.67007 0,0 0.0945,-0.28472 0.0945,-0.28472 l 0,0 c 3.66971,-0.0168 10.75464,-0.0823 14.35369,0.04 7.87355,0.2674 15.71121,1.14246 23.51007,2.21821 16.1991,2.42435 32.6269,5.09093 47.26113,12.89221 5.80359,3.61911 7.63806,4.36313 12.62639,9.04039 7.03188,6.59336 12.06397,14.88523 15.26625,23.92889 1.46744,5.38037 2.28937,7.26606 2.60842,12.83942 0.49983,8.73158 -2.02335,16.82037 -7.05932,23.92907 -1.55265,1.82367 -2.94476,3.79724 -4.65795,5.471 -12.18511,11.90468 -27.82287,19.13083 -43.73727,24.59415 -3.85803,1.14261 -7.6798,2.41567 -11.57408,3.42784 -20.61962,5.35927 -42.01199,7.12932 -63.21513,4.93178 -4.01002,-0.56602 -8.04274,-0.98963 -12.03006,-1.69805 -16.30706,-2.89727 -32.27895,-8.23785 -46.325646,-17.11504 -4.78518,-3.58994 -6.934935,-4.78908 -10.824711,-9.24775 -5.29709,-6.07181 -8.090993,-13.42203 -8.522984,-21.42688 0.05887,-1.89942 -0.0075,-3.80685 0.176608,-5.69824 0.972505,-9.99297 5.28667,-19.14187 11.385606,-27.00584 1.437763,-1.65771 2.813011,-3.37178 4.313289,-4.97313 9.553898,-10.19754 21.147878,-18.31999 33.235218,-25.21029 2.64451,-1.35811 5.2495,-2.79609 7.93352,-4.07432 12.19141,-5.80599 25.18994,-9.9956 38.59225,-11.78068 8.76416,-0.73166 17.41817,-1.13384 25.76784,2.14823 0,0 -2.7846,4.47094 -2.7846,4.47094 z"
       inkscape:connector-curvature="0"
       transform="translate(0,308.2677)" />
    <path
       style="fill:#000000"
       id="path3523"
       d="m 95.809345,424.37135 c -0.396791,5.7853 -0.647594,11.57908 -1.032979,17.36553 -0.312883,3.05755 -0.344286,6.14101 -0.639224,9.19896 -0.02392,0.15243 0.0805,0.43234 -0.07177,0.45727 -0.929608,0.15222 -1.923778,0.2883 -2.825909,0.0172 -0.287119,-0.0863 -0.08598,-0.59483 -0.09352,-0.89454 -0.03073,-1.2216 0.247007,-2.43213 0.474235,-3.62281 0.82978,-3.75893 2.324802,-7.31744 3.849438,-10.83647 1.684199,-3.92697 3.654578,-7.71964 5.983441,-11.3016 0.94904,-1.36358 1.92655,-2.67162 3.6737,-3.14441 1.60108,-0.43327 2.72603,1.68364 3.33054,2.68018 1.94686,4.49784 2.24446,9.41492 2.33163,14.24831 -0.28439,3.16126 -0.0427,6.38877 -0.55434,9.52477 -1.17058,0.0853 -2.37779,0.55855 -3.51174,0.25574 -0.70698,-0.18879 0.78075,-7.94037 0.92513,-8.59667 1.02603,-4.08327 2.55957,-8.03323 4.70808,-11.65577 4.00122,-5.28364 5.96845,-0.87299 7.01517,3.03921 0.92715,4.73559 1.40708,8.68387 -0.0416,13.35407 -0.14612,0.54385 -0.29223,1.08769 -0.43834,1.63154 0,0 -0.29477,0.0558 -0.29477,0.0558 l 0,0 c -0.12372,-0.48932 -0.24744,-0.97865 -0.37116,-1.46798 -1.3574,-3.99222 -1.0405,-8.2047 -1.96511,-12.29683 -0.14806,-0.5444 -0.26893,-1.09693 -0.44417,-1.63319 -0.12384,-0.37897 -0.29979,-0.73887 -0.45147,-1.10758 -0.0563,-0.13686 -0.19124,-0.2623 -0.17246,-0.4091 0.01,-0.0779 0.1704,0.003 0.23086,-0.0475 0.34067,-0.28267 0.72723,-0.54647 0.94762,-0.93036 0.14667,-0.25547 -0.47542,0.34794 -0.71313,0.52191 -2.36271,3.18421 -3.65815,6.99882 -4.70615,10.78818 -0.40603,1.81937 -0.79168,3.60875 -0.92693,5.47221 -0.0304,0.41934 -0.0562,1.85318 -0.064,1.85757 -1.00074,0.55716 -2.15158,0.78632 -3.22737,1.17949 1.29612,-2.61616 1.03817,-6.10783 1.24626,-8.92161 -0.0784,-4.44554 -0.40131,-8.97644 -2.23118,-13.09544 -0.15864,-0.28908 -0.31412,-0.57993 -0.47593,-0.86725 -0.44022,-0.78169 0.0862,0.25172 0.65767,-1.08323 0.25975,-0.60673 -2.3469,2.10194 -1.47297,1.32316 -2.40796,3.38852 -4.31646,7.09113 -5.999856,10.8865 -1.470099,3.41867 -3.031637,6.82593 -4.037051,10.41744 -0.203358,0.89548 -0.345379,1.41369 -0.462723,2.30147 -0.03604,0.27266 -0.04899,0.54788 -0.06953,0.82214 -0.01226,0.16369 0.117315,0.41687 -0.02884,0.49161 -0.813931,0.41622 -1.735766,0.57451 -2.605659,0.8556 -0.04587,0.0148 0.08872,-0.0378 0.133073,-0.0566 0.804991,-2.93037 0.891232,-6.0215 1.112174,-9.03213 0.224005,-5.74792 0.344941,-11.49918 0.43691,-17.2506 0,0 2.873942,-0.49416 2.873942,-0.49416 z"
       inkscape:connector-curvature="0"
       transform="translate(0,308.2677)" />
    <path
       style="fill:#000000"
       id="path3525"
       d="m 124.89005,431.02589 c 1.6093,-0.62401 3.1971,-1.3801 4.49831,-2.54119 0.0991,-0.0884 -0.44055,0.2447 -0.37724,0.12798 1.07049,-1.25583 0.65125,-0.60418 1.31132,-1.9194 0.25163,-0.91712 0.39183,-2.49021 -0.91511,-1.47028 -0.43862,0.31025 -1.29316,0.87179 -1.55952,1.29198 -0.098,0.15465 0.59922,-0.37164 0.50588,-0.21411 -0.33062,0.55798 -0.88033,0.95704 -1.25836,1.48406 -1.07601,1.50013 -1.3782,2.35982 -2.16576,4.04476 -1.24082,3.33135 -2.36711,7.02799 -1.02563,10.48503 1.17979,1.47945 2.90078,-0.24429 3.93535,-1.11072 -0.13723,0.0808 -0.51012,0.36762 -0.41171,0.24241 0.33353,-0.42437 0.77711,-0.75119 1.13152,-1.15827 1.56607,-1.79878 2.60083,-3.86608 3.52248,-6.04345 0.9412,-2.38553 1.52232,-4.88755 2.18634,-7.35865 0.48542,-2.21027 0.002,-2.60629 4.56539,-0.54702 0.13913,0.0628 0.34486,4.66563 0.35812,4.9942 0.0761,4.0877 0.16833,8.17387 0.33933,12.25885 0.0497,0.37657 0.0863,0.75509 0.14905,1.1297 0.0473,0.2825 0.10229,0.56461 0.1809,0.84005 0.32885,1.15228 0.36816,-0.27188 -0.41917,-0.23308 -0.70384,0.0347 -1.30938,0.52143 -1.96407,0.78214 2.06494,-2.61986 3.28367,-5.97098 4.71709,-8.98025 2.00946,-4.06591 3.93585,-8.18486 6.15699,-12.1418 0.62971,-0.62888 1.0327,-1.64468 1.88914,-1.88664 3.56228,-1.00643 3.18864,6.75202 3.26446,8.41676 0.1235,4.21437 0.20145,8.42522 0.0694,12.63957 -0.0908,1.85429 0.48565,2.64577 -3.21029,0.96287 -0.28038,-0.12766 0.28381,-0.54712 0.41346,-0.8266 0.2567,-0.55338 1.06888,-2.45309 1.26479,-2.90825 1.73821,-4.2268 3.95484,-8.22182 6.16891,-12.21045 0.86799,-1.48855 1.8137,-3.81094 3.84033,-4.1168 2.42043,-0.36529 2.86624,3.36133 3.16957,4.74648 0.37893,4.38073 1.93422,8.99867 1.06397,13.42077 -0.16457,0.83624 -0.54169,1.61619 -0.81254,2.42428 0.0521,0.57076 0.1042,1.14153 0.1563,1.71229 0,0 -0.28937,0.0792 -0.28937,0.0792 l 0,0 c -0.052,-0.57049 -0.10405,-1.14098 -0.15607,-1.71148 -0.40662,-0.61744 -0.91492,-1.17883 -1.21986,-1.85232 -1.70026,-3.7552 -1.21117,-8.7691 -2.34522,-12.73274 -0.12125,-0.54915 -0.25998,-1.09472 -0.36374,-1.64744 -0.0369,-0.19657 -0.23347,-0.50196 -0.0576,-0.59723 2.33359,-1.26434 -0.69299,2.78381 2.11662,-1.0454 0.52043,-0.7093 -3.27311,3.05552 -1.8027,1.92766 -2.43344,3.74331 -4.48645,7.72193 -6.17514,11.85626 -0.24723,0.61937 -0.89913,2.24277 -1.16308,2.93754 -0.12877,0.33894 -0.0342,0.89141 -0.37248,1.02194 -4.33179,1.67155 -3.74969,1.26722 -3.54241,-0.84935 0.17398,-4.11815 0.13338,-8.25213 -0.2587,-12.35745 -0.0974,-1.34454 -0.18906,-2.77825 -0.32932,-4.12418 -0.046,-0.44125 -0.17122,-0.87679 -0.16692,-1.32041 9.6e-4,-0.0992 0.0828,-0.23207 0.18201,-0.23568 2.18437,-0.0794 0.85084,0.86949 2.37824,-0.95348 -2.66423,3.5621 -4.19809,7.85648 -6.27249,11.75865 -1.54008,3.38246 -2.94282,6.83815 -4.69455,10.11801 -0.91727,0.49295 -1.73031,1.27654 -2.7518,1.47885 -1.79713,0.35591 -2.38762,-3.52501 -2.55424,-4.51084 -0.53563,-4.08237 -0.49626,-8.18747 -0.63943,-12.29662 -0.0699,-1.25622 -0.37748,-4.5004 -0.36969,-4.50454 1.91875,-1.02079 5.11322,-0.58678 3.93676,-1.47448 -0.11047,-0.0833 -0.0884,0.26228 -0.13261,0.39343 -0.54233,2.66197 -1.305,5.27195 -2.18532,7.84145 -1.7275,4.34979 -3.85924,8.27849 -7.78607,11.05034 -3.38801,2.00707 -6.497,2.53599 -8.88852,-1.20464 -1.7016,-4.40985 -0.96515,-8.61571 0.53503,-13.0055 1.96996,-4.7553 4.67779,-10.04387 10.31394,-10.93459 0.57003,0.0842 1.16465,0.0668 1.71009,0.25254 2.79954,0.9535 3.31933,4.01497 2.66216,6.52254 -0.25139,0.52851 -0.45065,1.08512 -0.75417,1.58551 -2.04843,3.37708 -5.90236,5.27276 -9.5314,6.41025 0,0 0.22903,-4.21299 0.22903,-4.21299 z"
       inkscape:connector-curvature="0"
       transform="translate(0,308.2677)" />
    <path
       style="fill:#000000"
       id="path3527"
       d="m 184.21373,428.65191 c -2.55666,0.77929 -5.01463,1.94733 -7.12439,3.6066 -1.72034,1.35299 -1.79106,0.76396 -1.57477,1.67815 -2.13718,2.64782 -3.77121,5.85417 -3.16226,9.31872 0.36109,0.80645 1.7282,1.81638 2.56935,2.02796 0.53249,0.13394 1.09722,0.045 1.64583,0.0675 0,0 -0.0124,0.29975 -0.0124,0.29975 l 0,0 c -3.54109,2.13198 -5.84412,3.517 -8.28335,-0.8733 -0.146,-0.58541 -0.36196,-1.1577 -0.438,-1.75623 -0.48519,-3.81891 1.26324,-7.50694 3.38886,-10.53865 1.06024,-1.05595 2.07238,-2.16251 3.1807,-3.16787 2.84181,-2.57779 6.47592,-4.03487 10.05029,-5.25728 0,0 -0.2399,4.59466 -0.2399,4.59466 z"
       inkscape:connector-curvature="0"
       transform="translate(0,308.2677)" />
    <path
       style="fill:#000000"
       id="path3529"
       d="m 189.04449,422.84089 c 3.27104,-1.48124 6.67093,-0.67017 8.10523,2.88119 0.30291,0.75002 0.38564,1.57112 0.57846,2.35667 0.53624,5.77442 -1.48577,10.49434 -4.82173,15.05497 -2.43422,2.61713 -5.76928,6.45925 -9.83478,5.96827 -0.5389,-0.0651 -1.04141,-0.30669 -1.56211,-0.46004 -3.54832,-2.31286 -3.46596,-5.27915 -1.78905,-8.78656 2.35403,-3.35027 6.16503,-5.59594 10.34471,-5.21031 0.70381,0.0649 1.38029,0.30505 2.07043,0.45758 0.62729,0.27634 1.25457,0.55269 1.88186,0.82903 0.57306,0.33795 1.11075,0.74473 1.71917,1.01385 0.56717,0.25088 1.18801,0.35656 1.78201,0.53484 0,0 -0.10512,0.28098 -0.10512,0.28098 l 0,0 c -0.65373,-0.007 -1.31193,-0.0989 -1.9612,-0.0223 -0.11364,0.0134 -4.10665,0.97114 -4.27175,1.0106 -1.65906,0.38436 -3.47758,0.61328 -5.05005,1.3007 -0.43043,0.18817 -0.76089,0.69665 -1.23056,0.6869 -0.40502,-0.008 2.38411,-2.11895 -0.30688,0.0107 -0.68065,0.79745 -1.9016,2.3493 -0.93049,3.36454 1.4208,0.28816 2.23873,-0.72061 3.47425,-1.17796 0.0953,-0.0353 -0.14189,0.35508 -0.0568,0.29948 0.58001,-0.37926 1.07345,-0.87678 1.61017,-1.31516 3.16445,-3.49408 5.2644,-7.54275 5.06022,-12.38589 -0.48145,-2.9905 -1.12111,-4.14307 -4.25821,-2.70223 0,0 -0.44774,-3.98982 -0.44774,-3.98982 z"
       inkscape:connector-curvature="0"
       transform="translate(0,308.2677)" />
    <path
       style="fill:#000000"
       id="path3531"
       d="m 214.7963,430.70045 c -3.27489,-1.493 -5.82026,-1.26921 -8.48893,1.12931 0.344,-0.20087 0.97821,-0.99731 1.032,-0.6026 0.0697,0.5111 -0.67266,0.787 -0.94736,1.2236 -0.29526,0.46928 -0.54446,0.96918 -0.755,1.48208 -0.62253,1.51659 -0.78735,2.95318 -0.75358,4.56731 0.33094,1.90544 1.25098,2.62754 3.09352,2.35581 3.52001,-0.99197 5.36959,-4.07594 6.94419,-7.13772 1.42944,-4.21234 1.74867,-8.71301 1.65911,-13.13367 -0.0819,-3.96694 -0.67062,-7.88643 -0.91842,-11.84143 -0.011,-2.21399 -0.56827,-3.51273 4.39785,-1.24995 0.52876,0.24092 -0.0586,1.16078 -0.0717,1.74169 -0.017,0.75005 -0.0126,1.50043 -0.0188,2.25064 -0.0311,6.59556 0.19557,13.1896 0.45077,19.77932 -0.0101,3.58784 0.40181,7.14235 0.73051,10.70406 0.13833,1.37836 -0.95708,1.14844 -5.23732,0.67945 -0.14915,-0.0163 0.70688,-3.41416 0.76793,-3.6514 1.17755,-3.96178 3.06338,-7.65484 5.15916,-11.19928 1.52456,-2.40288 3.03138,-4.75759 5.72643,-6.06184 1.17057,-0.56649 2.39201,0.38097 3.30022,0.84084 2.38829,2.72424 2.68913,6.46547 2.69133,9.94736 -0.10075,1.65502 -0.44497,3.93877 -1.31257,5.3969 -0.8218,0.93034 -0.52404,0.49123 -0.97508,1.25797 0,0 -0.28449,0.0952 -0.28449,0.0952 l 0,0 c -0.36938,-0.32209 -0.84297,-0.55175 -1.1129,-0.9608 -0.16718,-0.25334 -0.16952,-0.58321 -0.26997,-0.86963 -0.42605,-1.21473 -0.81414,-2.40555 -0.87232,-3.71321 -0.2923,-2.29013 -0.49603,-4.64394 -1.07697,-6.86407 1.05102,0.17765 0.59222,0.46741 1.89129,-1.10378 1.05933,-1.28125 -3.94883,3.51512 -2.62745,2.97923 -1.98095,3.19433 -3.78784,6.52979 -4.88815,10.14119 -0.17392,0.65629 -0.58674,3.1277 -0.65613,3.16577 -4.44496,2.43877 -5.47839,3.94679 -5.59818,1.11331 0.16528,-3.62026 0.36871,-7.23687 0.13437,-10.86517 -0.16436,-6.64874 -0.42094,-13.29767 -0.36476,-19.94957 0.0152,-0.76233 0.0347,-1.52458 0.0455,-2.28698 0.008,-0.59456 -0.42778,-1.38376 0.0122,-1.7838 5.313,-4.83121 4.62363,-2.96243 4.37941,-0.24988 -0.68705,4.16515 -1.79344,8.23639 -2.4372,12.41098 -0.72286,4.4478 -0.75626,9.0132 -2.25482,13.30717 -1.32425,4.344 -3.49696,8.26858 -7.47685,10.72878 -0.62042,0.23567 -1.21257,0.56679 -1.86126,0.70701 -3.70271,0.80039 -5.92817,-1.9966 -6.60865,-5.29431 -0.26036,-3.0072 -0.0316,-5.81916 1.23786,-8.61487 0.32319,-0.71176 0.61752,-1.46727 1.13804,-2.05047 1.09066,-1.22198 2.42604,-2.20121 3.63905,-3.30182 0.66993,-0.35236 1.30649,-0.77717 2.00977,-1.0571 3.60321,-1.43417 7.45343,-0.71565 10.87561,0.83348 0,0 -3.44713,5.00486 -3.44713,5.00486 z"
       inkscape:connector-curvature="0"
       transform="translate(0,308.2677)" />
    <path
       style="fill:#000000"
       id="path3533"
       d="m 238.77141,426.21728 c 2.86373,1.14618 5.99302,2.23405 8.97062,0.96762 0.56188,-0.57623 2.66614,-2.28946 -0.32451,0.004 -0.0565,0.0433 0.0908,-0.11577 0.15462,-0.14723 0.076,-0.0375 0.0173,0.1692 0.0136,0.25387 -1.75645,-0.4308 -3.47479,-0.29768 -5.23591,0.0656 -0.92394,0.39664 -2.9413,0.89354 -3.33306,2.03988 -0.095,0.27793 0.79204,-0.72307 0.76892,-0.43028 -0.04,0.50646 -0.60454,0.82217 -0.8356,1.27462 -0.27323,0.53505 -0.44654,1.1155 -0.6698,1.67324 -1.04833,3.87668 -0.79997,7.79739 1.47653,11.14983 1.93851,2.30624 2.89863,1.90323 5.71371,1.54625 0,0 -0.009,0.29987 -0.009,0.29987 l 0,0 c -2.05752,1.04497 -4.52261,2.25316 -6.95194,1.86699 -0.76046,-0.12089 -1.41798,-0.60083 -2.12696,-0.90124 -0.51873,-0.55387 -1.13307,-1.03167 -1.5562,-1.66161 -2.3912,-3.55998 -2.05473,-8.4478 -1.49858,-12.44782 0.37311,-1.26319 0.81146,-3.24108 1.68366,-4.32655 2.19252,-2.72866 4.67123,-4.42756 8.06453,-5.06181 3.21191,-0.36549 6.56819,-0.40786 8.8782,2.21396 0.21403,0.46691 0.51875,0.90214 0.64209,1.40074 0.77788,3.14478 -2.67504,5.35851 -5.30913,5.98163 -3.79743,0.39052 -7.37891,-0.59542 -10.71958,-2.42711 0,0 2.20353,-3.33464 2.20353,-3.33464 z"
       inkscape:connector-curvature="0"
       transform="translate(0,308.2677)" />
    <path
       style="fill:#000000"
       id="path3535"
       d="m 261.1581,431.42119 c -2.30808,0.62784 -4.85515,1.50236 -6.52583,3.32827 -0.19946,0.21799 0.86502,-0.71833 0.77042,-0.43841 -0.17752,0.52526 -0.7043,0.8565 -1.05645,1.28475 -0.88799,1.42966 -1.98324,3.89385 0.0269,4.84321 2.52467,0.74963 4.75205,-0.89769 6.87979,-2.00494 0.58394,-0.54063 1.16789,-1.08125 1.75183,-1.62188 0,0 0.28832,0.0829 0.28832,0.0829 l 0,0 c -0.36195,0.63061 -0.7239,1.26123 -1.08585,1.89184 -2.19479,2.97293 -5.1564,6.82413 -9.35906,6.55423 -0.66514,-0.0427 -1.29328,-0.32309 -1.93992,-0.48464 -0.52742,-0.37696 -1.12391,-0.67241 -1.58225,-1.13088 -2.57921,-2.57994 -1.96729,-6.43015 -0.69466,-9.44837 0.3996,-0.65998 0.68148,-1.40754 1.19881,-1.97992 3.29481,-3.64546 7.25388,-6.0635 12.03147,-7.13038 0,0 -0.70357,6.25425 -0.70357,6.25425 z"
       inkscape:connector-curvature="0"
       transform="translate(0,308.2677)" />
    <path
       style="fill:#000000"
       id="path3537"
       d="m 266.91206,416.33354 c -0.011,-0.51512 -0.68992,-4.34928 -1.18356,-4.279 -0.40627,0.0578 0.24937,0.60794 0.87261,1.21896 0.37525,-0.20584 0.94354,-1.00481 1.12576,-0.61753 0.24344,0.51737 -0.48952,1.03616 -0.67416,1.57731 -1.29446,3.79404 -1.58873,7.79313 -1.80987,11.76152 -0.13763,5.08541 0.52497,10.18441 2.96103,14.69694 1.36819,1.71585 0.74857,0.41609 1.80422,0.27141 0.97568,-0.13371 1.73466,0.38368 2.59609,0.75087 0.54529,-0.25186 1.09058,-0.50372 1.63587,-0.75558 0,0 0.0419,0.29706 0.0419,0.29706 l 0,0 c -0.53055,0.41318 -1.06109,0.82637 -1.59163,1.23955 -0.95061,1.52345 -1.44151,2.93274 -3.19654,3.67992 -2.51309,1.06991 -4.7734,-0.81986 -5.96911,-2.80807 -2.26351,-5.23835 -2.90673,-10.94535 -2.83802,-16.62148 0.18716,-3.41703 0.43812,-6.76536 1.14846,-10.12198 0.15294,-0.72273 0.93146,-4.03057 1.44321,-4.8129 0.71367,-1.09101 1.70621,-1.97164 2.55931,-2.95746 0.70266,-0.0685 1.41648,-0.34806 2.10796,-0.20565 2.56357,0.52796 2.70527,4.611 3.09785,6.51238 0,0 -4.13136,1.17373 -4.13136,1.17373 z"
       inkscape:connector-curvature="0"
       transform="translate(0,308.2677)" />
    <path
       style="fill:#000000"
       id="path3549"
       d="m 589.05535,336.60549 c -1.4313,0.0251 -2.94762,-0.24274 -4.35059,0.13197 -0.23534,0.0566 -0.8207,0.66552 -0.0657,-0.0374 0.12267,-0.11421 -0.23666,0.2438 -0.31479,0.39208 -0.20114,0.31038 -0.55375,0.3109 -0.53612,0.71206 0,0 -0.1779,0.0425 -0.1779,0.0425 l 0,0 c -0.0207,-0.44164 -0.41045,-0.21455 -0.5435,-0.63697 -0.008,-1.0791 0.79429,-1.82059 1.7659,-2.19388 1.55341,-0.38984 3.16304,-0.24476 4.74268,-0.0915 0,0 -0.52,1.68109 -0.52,1.68109 z"
       inkscape:connector-curvature="0"
       transform="translate(0,308.2677)" />
    <path
       style="fill:#000000"
       id="path3551"
       d="m 585.01114,339.15463 c -0.4753,1.69053 -0.55735,3.48018 -1.08215,5.15432 -0.18178,0.56998 -0.20925,0.85292 -0.83436,0.93461 0,0 -0.85403,0.22602 -0.85403,0.22602 l 0,0 c -0.62979,-0.13437 -0.58232,-0.3176 -0.61676,-0.92505 -0.054,-1.74576 0.45199,-3.47167 0.63583,-5.19945 0,0 2.75147,-0.19045 2.75147,-0.19045 z"
       inkscape:connector-curvature="0"
       transform="translate(0,308.2677)" />
    <path
       style="fill:#000000"
       id="path3553"
       d="m 579.27135,335.40009 c 2.89087,-0.21235 5.75394,-0.68797 8.60817,-1.17846 0.5628,-0.0207 1.94486,-0.50871 2.47489,0.0482 0.29465,0.30959 0.35069,0.78268 0.57881,1.1441 0,0 -0.0292,0.18058 -0.0292,0.18058 l 0,0 c -0.30377,0.45241 -0.47288,0.99398 -0.81918,1.41473 -0.61619,0.74867 -1.84134,0.88868 -2.68742,1.12847 -2.93193,0.58511 -5.8926,0.98354 -8.85759,1.35916 0,0 0.73149,-4.09681 0.73149,-4.09681 z"
       inkscape:connector-curvature="0"
       transform="translate(0,308.2677)" />
    <path
       style="fill:#000000"
       id="path3555"
       d="m 594.27561,338.71235 c -0.3092,0.0381 -0.62069,0.0607 -0.92761,0.11417 -1.36394,0.23758 -2.71328,0.6934 -3.80566,1.56828 -0.10662,0.0854 0.23767,-0.13474 0.35651,-0.2021 -0.96722,0.8514 -1.57947,1.96742 -0.95498,3.18963 0.81276,0.96841 2.18288,1.26231 3.38901,1.28153 0,0 -0.003,0.18288 -0.003,0.18288 l 0,0 c -2.15472,1.41782 -3.53497,1.91303 -5.43019,-0.23504 -1.03202,-1.98255 -0.95985,-3.702 0.41485,-5.52439 0.61678,-0.50099 1.20359,-1.04134 1.85035,-1.50299 1.63275,-1.1654 3.77713,-1.47911 5.7073,-1.73256 0,0 -0.59614,2.86059 -0.59614,2.86059 z"
       inkscape:connector-curvature="0"
       transform="translate(0,308.2677)" />
    <path
       style="fill:#000000"
       id="path3557"
       d="m 601.55699,335.11227 c -0.70015,2.58659 -1.18711,5.22454 -1.52277,7.88149 -0.0681,0.63025 -0.11415,1.26281 -0.14582,1.89588 -0.006,0.11249 0.12948,0.33766 0.0169,0.33746 -0.66732,-0.001 -1.33441,-0.0248 -2.00161,-0.0372 0.0606,-1.32805 -0.0704,-2.66266 -0.13086,-3.99059 -0.14326,-1.9761 -0.18148,-3.93765 0.19375,-5.88751 0.60451,-2.10356 1.72647,-3.66386 3.64149,-4.81141 0.27217,-0.16309 0.61431,-0.15916 0.92147,-0.23874 2.10676,-0.2473 3.74715,1.09791 5.02179,2.62309 2.10875,3.46684 -0.31591,5.45345 -3.5229,6.99925 -1.58954,0.50007 -4.3351,1.75539 -5.94278,0.68931 -1.88171,-1.24778 0.0563,-0.97358 -1.55749,-1.05808 0,0 0.0521,-0.17534 0.0521,-0.17534 l 0,0 c 1.38869,0.0668 0.17474,0.17695 1.87991,-1.12391 1.53764,-1.17305 3.56808,-1.21922 5.22984,-2.14237 0.31838,-0.18535 0.59977,-0.65316 0.95515,-0.55606 0.2724,0.0744 -0.51707,0.39618 -0.50741,0.67841 0.004,0.12321 0.80775,-0.36479 0.84715,-0.42183 0.20817,-0.30135 0.0399,-0.59417 -0.0423,-0.89122 -0.55286,-0.91161 -1.22945,-1.85621 -2.43011,-1.55523 -0.86028,0.52682 -0.0591,0.0741 0.23748,-0.36237 0.1149,-0.16908 -0.33136,0.24181 -0.47789,0.38435 -0.52264,0.50843 -0.86308,1.1415 -1.09408,1.82693 -0.49556,1.77786 -0.4802,3.60628 -0.54509,5.43989 -0.0739,1.53954 -0.14056,3.09239 -0.48668,4.59989 -0.7432,0.23174 -1.46346,0.55701 -2.22958,0.69521 -0.0948,0.0171 -0.0225,-0.19147 -0.0304,-0.28752 -0.0212,-0.25741 -0.0338,-0.58257 -0.0321,-0.83262 0.004,-0.6489 0.0324,-0.86758 0.0806,-1.55513 0.3282,-2.70581 0.79121,-5.39022 1.36563,-8.05501 0,0 2.25665,-0.0691 2.25665,-0.0691 z"
       inkscape:connector-curvature="0"
       transform="translate(0,308.2677)" />
    <path
       style="fill:#000000"
       id="path3559"
       d="m 620.50476,333.37032 c 1.47345,-0.6394 3.80899,-1.62363 5.12419,-0.074 0.2935,0.34582 0.40377,0.81235 0.60565,1.21853 -0.0139,0.46545 0.0473,0.93928 -0.0417,1.39636 -0.47682,2.44837 -2.82268,4.80059 -4.49084,6.52604 -1.47314,1.14189 -3.07382,3.13174 -5.02925,3.4795 0.23147,-1.13805 0.26721,-2.33422 0.69439,-3.41415 0.0851,-0.21509 0.45861,-0.0616 0.68894,-0.0829 1.25719,-0.11605 2.48749,-0.0351 3.73965,0.0948 2.33298,0.66357 -0.4214,-0.29801 1.75806,1.11924 0.28246,0.18368 0.64363,0.19959 0.96545,0.29939 0,0 -0.0383,0.17886 -0.0383,0.17886 l 0,0 c -0.38798,0.14199 -0.79533,0.23937 -1.16393,0.42597 -2.21246,1.12003 -0.40865,0.69626 -2.42803,1.00321 -0.87409,-0.001 -1.75031,-0.0233 -2.62204,0.0566 -0.21984,0.0201 -0.43952,0.0452 -0.65715,0.0822 -0.18048,0.0307 -0.49191,0.29856 -0.53577,0.12082 -0.25603,-1.03737 -0.14908,-2.13178 -0.22361,-3.19767 1.03295,-0.85194 0.79577,-0.34451 1.86403,-1.32614 1.81221,-1.59816 3.45964,-3.32726 4.59094,-5.48562 0.0858,-0.0216 0.3046,-0.11778 0.22107,-0.14702 -0.87905,-0.30764 -1.92392,0.32979 -2.68334,0.6618 0,0 -0.33839,-2.93584 -0.33839,-2.93584 z"
       inkscape:connector-curvature="0"
       transform="translate(0,308.2677)" />
    <path
       style="fill:#000000"
       id="path3561"
       d="m 634.94251,336.2678 c -1.54033,1.52636 -2.75849,3.34493 -2.75859,5.56635 0.35374,1.43461 1.86367,0.4579 2.69141,0.007 0.25975,-0.20573 0.55912,-0.36953 0.77925,-0.6172 0.0744,-0.0837 -0.37093,0.2011 -0.32051,0.10108 0.14811,-0.29379 0.45125,-0.48109 0.64583,-0.74639 0.52488,-0.71565 0.821,-1.50216 1.078,-2.33936 0.20535,-1.42587 -0.87359,-2.08399 -2.01262,-2.64088 -0.47606,-0.32073 -1.2251,-0.22307 -1.65523,-0.62944 -0.67675,-0.63936 0.088,-0.34413 -0.61703,-0.54448 0,0 -0.17122,-0.0643 -0.17122,-0.0643 l 0,0 c 1.19858,-2.1786 2.02795,-2.41785 4.35044,-1.59928 2.24986,1.2056 3.71994,2.65104 3.50824,5.38826 -0.0835,0.38177 -0.12785,0.77424 -0.25039,1.14532 -0.82384,2.49486 -2.96268,4.34004 -5.25167,5.46206 -0.40505,0.13785 -0.79603,0.32744 -1.21513,0.41356 -2.14891,0.44157 -3.96456,-0.64689 -4.33631,-2.82757 0.0195,-0.39347 -0.006,-0.79172 0.0584,-1.1804 0.3586,-2.17133 1.64824,-4.1211 2.96196,-5.82332 0,0 2.51522,0.929 2.51522,0.929 z"
       inkscape:connector-curvature="0"
       transform="translate(0,308.2677)" />
    <path
       style="fill:#000000"
       id="path3563"
       d="m 645.15262,336.9635 c 0.09,-0.0652 0.33822,-0.28362 0.27012,-0.19572 -0.20383,0.26313 -0.47722,0.46682 -0.68287,0.72853 -0.77127,0.98153 -1.02094,1.92622 -0.80678,3.13215 0.72155,1.65499 1.80045,2.12451 3.47467,1.543 0.41702,-0.29621 1.09849,-0.70475 1.32111,-1.19904 0.0494,-0.10975 -0.3838,0.19307 -0.35284,0.0768 0.0939,-0.35275 0.40963,-0.60608 0.57967,-0.92908 0.45064,-0.85603 0.48202,-1.13894 0.7429,-2.0512 0.3165,-1.84708 -0.045,-2.77663 -1.94023,-3.08618 -1.15728,-0.0508 -2.23093,0.41046 -3.04716,1.2343 -0.12262,0.12377 0.52355,-0.44509 0.42879,-0.29888 -0.16606,0.25622 -0.43469,0.42889 -0.65204,0.64334 -0.44584,0.65298 -1.25397,1.42953 -1.35232,2.27629 -0.0213,0.18331 0.0479,0.36596 0.0718,0.54894 0,0 -0.1254,0.13316 -0.1254,0.13316 l 0,0 c -0.27378,-0.0716 -0.57272,-0.0798 -0.82134,-0.21495 -1.29533,-0.70429 -0.94745,-2.27291 -0.58278,-3.40079 0.17611,-0.34993 0.27399,-0.75183 0.52833,-1.04979 1.89803,-2.2235 4.15226,-3.49001 7.09022,-2.97658 0.42682,0.16057 0.87802,0.26721 1.28045,0.4817 2.12743,1.13391 2.7603,3.40994 2.43518,5.65759 -0.8347,3.25057 -2.53218,6.05312 -5.96683,7.03299 -0.41923,0.0388 -0.83734,0.14028 -1.25769,0.11651 -2.14564,-0.12131 -3.74663,-1.72954 -4.49912,-3.61805 -0.0804,-0.41179 -0.2084,-0.81708 -0.24112,-1.23536 -0.20924,-2.67514 1.57715,-4.58995 3.52047,-6.14468 0,0 0.58477,2.79505 0.58477,2.79505 z"
       inkscape:connector-curvature="0"
       transform="translate(0,308.2677)" />
    <path
       style="fill:#000000"
       id="path3565"
       d="m 656.74686,335.46876 c -0.89684,0.6953 -2.05293,1.8411 -2.40254,3.47986 0.0444,1.4359 1.63957,1.36792 2.7266,1.34189 1.01545,-0.20026 2.75468,-0.82143 3.35431,-1.73191 0.0993,-0.15085 -0.32355,0.16068 -0.48532,0.24101 0.19656,-0.23075 0.39312,-0.46151 0.58968,-0.69227 0.81569,-1.13084 1.33842,-2.39982 0.91079,-3.77368 -0.29386,-0.89206 -1.34542,-0.81766 -1.89248,-1.41421 -0.23986,-0.26156 -0.41562,-0.57535 -0.62343,-0.86303 0,0 0.009,-0.18268 0.009,-0.18268 l 0,0 c 0.40464,-0.46681 0.70643,-1.04814 1.21391,-1.40044 1.89078,-1.31258 4.21246,0.63647 5.01531,2.23457 0.10664,0.35494 0.25401,0.70012 0.31991,1.06484 0.34708,1.92093 -0.47321,3.81582 -1.51415,5.37449 -2.01145,2.41848 -4.57301,4.18915 -7.79136,4.19129 -2.77191,-0.25333 -4.62424,-1.11289 -4.8447,-4.16104 0.0607,-0.37593 0.0828,-0.76017 0.18207,-1.12781 0.66717,-2.47056 2.8041,-4.15579 4.76384,-5.60424 0,0 0.46823,3.02336 0.46823,3.02336 z"
       inkscape:connector-curvature="0"
       transform="translate(0,308.2677)" />
    <path
       style="fill:#000000"
       id="path3567"
       d="m 671.20139,334.89768 c -0.2727,0.0327 -0.54949,0.0408 -0.81809,0.0981 -0.59685,0.12737 -1.12975,0.33295 -1.63843,0.67367 -0.2207,0.14783 -0.86855,0.56735 -0.60813,0.51499 0.32523,-0.0654 0.49278,-0.53704 0.82383,-0.55836 0.23113,-0.0149 -0.29639,0.35595 -0.44459,0.53393 -0.81778,1.52428 -0.73071,3.26806 0.109,4.75097 0.25753,0.22668 0.39755,0.44254 0.76379,0.45801 0.92771,0.0392 2.02482,-0.82655 2.73628,-1.27655 0.32872,-0.27223 0.695,-0.50462 0.98617,-0.8167 0.0968,-0.10374 -0.46598,0.29383 -0.38784,0.1754 0.2265,-0.34333 0.58853,-0.57613 0.8575,-0.88731 0.69839,-0.80797 1.09228,-1.6124 1.4366,-2.60766 0.40442,-1.56899 -0.49024,-2.7041 -1.35693,-3.90898 -0.39541,-1.09565 -0.23822,-0.51047 -0.44382,-1.76277 0,0 0.0729,-0.16774 0.0729,-0.16774 l 0,0 c 1.65619,-0.84988 0.79786,-0.65512 2.55826,-0.65368 0.37384,0.17743 0.77358,0.30829 1.12152,0.5323 2.04613,1.31733 2.67714,3.75124 2.32964,6.03887 -0.13652,0.44631 -0.23219,0.90723 -0.40956,1.33894 -1.19098,2.89863 -3.78919,4.974 -6.44283,6.46468 -2.73565,1.19583 -4.91995,1.63033 -6.86753,-1.08925 -1.12045,-2.27671 -1.57546,-4.76202 -0.83424,-7.24272 0.1888,-0.40105 0.27459,-0.86946 0.56638,-1.20314 1.86093,-2.12807 4.01624,-3.12399 6.75915,-3.38551 0,0 -0.86907,3.9805 -0.86907,3.9805 z"
       inkscape:connector-curvature="0"
       transform="translate(0,308.2677)" />
    <path
       style="fill:#000000"
       id="path3569"
       d="m 800.38245,514.21874 c -0.55194,3.31817 -0.86802,6.67313 -1.08517,10.02838 0.001,1.22061 -0.18933,2.38942 -0.53996,3.5504 -0.0939,0.31086 -0.24963,0.94636 -0.42014,0.95479 -0.39041,0.0193 -0.76083,-0.17978 -1.14124,-0.26967 -0.0976,-0.25221 -0.21134,-0.49873 -0.29267,-0.75663 -0.10778,-0.34178 -0.16207,-0.69915 -0.27381,-1.03966 -0.60559,-1.84538 -1.55886,-3.55157 -2.55971,-5.20394 -1.23497,-1.89601 -2.67459,-3.64848 -4.10066,-5.40228 -1.72804,-1.87419 -0.86555,-2.63524 1.51833,-3.74296 0.0159,-0.007 1.80888,0.0389 1.89277,0.041 1.51265,0.17805 3.77104,-0.31323 5.16955,0.30011 2.9156,1.2787 -0.59985,0.5325 2.17793,0.98719 0,0 -0.0391,0.1787 -0.0391,0.1787 l 0,0 c -2.959,0.74367 0.86642,-0.35246 -2.66954,1.2483 -1.6799,0.7605 -3.69524,0.4912 -5.47425,0.64045 -0.31132,0.0165 -0.6235,0.021 -0.93396,0.0494 -0.16489,0.0151 -0.59636,0.20811 -0.49007,0.0811 0.43723,-0.52233 1.23498,-0.73205 1.54336,-1.33943 0.27492,-0.54146 -0.82698,-1.6341 -0.11771,-0.60069 1.61347,1.88113 3.00118,3.92263 3.85402,6.27268 0.84452,2.58253 1.34211,5.22377 1.5695,7.93116 -0.27598,0.22397 -0.51349,0.50622 -0.82793,0.67189 -0.0616,0.0325 -0.0904,-0.11136 -0.10815,-0.17869 -0.11887,-0.45214 -0.19976,-0.91565 -0.24469,-1.38099 -0.0858,-0.88884 0.008,-1.72049 0.0638,-2.61099 0.23782,-3.40288 0.4581,-6.80998 0.91591,-10.19236 0,0 2.61357,-0.21728 2.61357,-0.21728 z"
       inkscape:connector-curvature="0"
       transform="translate(0,308.2677)" />
    <path
       style="fill:#000000"
       id="path3571"
       d="m 814.67541,518.18298 c -2.63506,-0.16427 -4.86301,0.62174 -6.9759,2.14777 0.16014,-0.0859 0.56275,-0.41963 0.48041,-0.25765 -0.17417,0.34264 -0.54806,0.54264 -0.78078,0.84856 -1.01176,1.32997 -1.2329,2.57187 -1.10013,4.18956 0.23927,1.23473 1.00432,2.10944 2.20178,2.52872 0.35089,0.12286 0.7339,0.13189 1.08822,0.24448 0.42728,0.13578 0.83285,0.33221 1.24928,0.49832 0.50575,-0.0767 1.01151,-0.15335 1.51727,-0.23003 0,0 -0.001,0.18291 -0.001,0.18291 l 0,0 c -0.54697,0.30397 -1.09395,0.60793 -1.64092,0.9119 -0.61809,0.32715 -1.1815,0.79051 -1.85426,0.98146 -0.56855,0.16137 -1.18518,0.11498 -1.77236,0.0479 -2.37676,-0.27166 -3.75903,-1.96624 -4.40326,-4.13985 -0.27155,-2.26993 -0.23781,-4.19335 0.91176,-6.25696 0.26554,-0.47669 0.54065,-0.96463 0.92932,-1.34762 0.80104,-0.78934 1.73936,-1.42603 2.60904,-2.13904 2.84406,-1.57124 5.58008,-2.35388 8.85651,-2.07436 0,0 -1.31474,3.86396 -1.31474,3.86396 z"
       inkscape:connector-curvature="0"
       transform="translate(0,308.2677)" />
    <path
       style="fill:#000000"
       id="path3573"
       d="m 820.91864,514.55165 c -0.77975,3.45945 -1.1852,7.0085 -1.03791,10.55347 0.0448,0.37956 0.0758,0.76101 0.13444,1.13867 0.0385,0.24792 0.0864,0.49537 0.15692,0.73617 0.0286,0.0978 0.18925,0.361 0.13841,0.27266 -0.13736,-0.2387 -0.12315,-0.73938 -0.39811,-0.72395 -2.32534,0.13045 -2.81017,1.84069 -2.33414,0.48592 0.48298,-2.65049 0.62326,-5.34848 0.92023,-8.0233 0.30607,-2.27537 0.52349,-4.7869 1.92609,-6.70831 0.23946,-0.32804 0.54251,-0.60456 0.81377,-0.90683 0.7709,-0.46395 1.47647,-1.05982 2.31272,-1.39185 0.40586,-0.16115 0.87568,-0.0984 1.30924,-0.0462 1.99313,0.23996 3.23445,1.64931 4.3082,3.18521 1.19117,2.28887 1.17539,4.84543 -0.46166,6.9312 -0.32682,0.4164 -0.74248,0.75466 -1.11372,1.13199 -1.65229,1.21445 -3.40245,2.60104 -5.59283,2.42789 -0.4222,-0.0334 -0.90797,-0.0508 -1.22717,-0.32912 -3.96849,-3.46048 1.45508,-0.0745 -1.42074,-1.77913 0,0 0.10717,-0.14824 0.10717,-0.14824 l 0,0 c 0.22834,0.12915 0.43737,0.47398 0.68502,0.38743 0.48788,-0.1705 0.73582,-0.73278 1.15764,-1.03139 0.21646,-0.15324 2.94886,-1.48335 3.10948,-1.50736 0.17682,-0.0264 -0.21097,0.28872 -0.31646,0.43307 1.7157,-1.09065 3.13913,-2.40963 2.32814,-4.59342 -0.41719,-0.72712 -0.80223,-1.39415 -1.63047,-1.71354 -0.18019,-0.0695 -0.37592,-0.10997 -0.56904,-0.10892 -0.18384,10e-4 -0.56994,0.29624 -0.53944,0.11493 0.0503,-0.29904 0.42028,-0.43723 0.63042,-0.65585 -0.20932,0.11918 -0.44329,0.20289 -0.62795,0.35754 -1.53358,1.28429 -1.49842,3.74503 -1.83417,5.5205 -0.27851,2.77467 -0.44434,5.56366 -0.87751,8.32051 -0.29486,1.61335 -0.1,1.88675 -2.93278,2.41171 -1.02629,0.19018 -0.75037,-3.34034 -0.75141,-3.62251 0.0184,-3.65839 0.0782,-7.32146 0.7047,-10.93868 0,0 2.92292,-0.18023 2.92292,-0.18023 z"
       inkscape:connector-curvature="0"
       transform="translate(0,308.2677)" />
    <path
       style="fill:#000000"
       id="path3575"
       d="m 849.87556,519.89501 c 1.25686,-1.76534 2.54154,-3.63831 2.62849,-5.86416 -0.33646,-1.76407 -2.27847,-1.0592 -3.48223,-0.66571 -1.00282,0.48736 -1.21097,0.5178 -2.08941,1.23382 -0.11158,0.091 0.4563,-0.32267 0.38357,-0.19845 -0.1611,0.27513 -0.46858,0.43579 -0.66813,0.68444 -0.43349,0.54018 -0.3868,0.60979 -0.53466,1.22044 0.27439,2.02031 1.89253,3.70123 3.15365,5.20981 1.3872,1.88119 3.14688,3.79437 3.4782,6.2135 0.0572,0.41736 0.0125,0.84241 0.0188,1.26362 -0.44094,2.33284 -2.62051,4.20064 -5.0865,3.97976 -1.28904,-0.11545 -1.52033,-0.3974 -2.62963,-1.01254 -0.34671,-0.36284 -0.75473,-0.67572 -1.04013,-1.08852 -1.33261,-1.92746 -1.26642,-4.6228 0.0659,-6.53834 0.39263,-0.56451 0.94992,-0.99446 1.42488,-1.49169 2.7549,-1.34001 1.47838,-0.63698 3.84884,-2.0737 0,0 0.0371,0.17911 0.0371,0.17911 l 0,0 c -1.43921,1.40228 -1.00724,0.56588 -1.34742,2.4819 -0.55271,1.50595 -1.79132,3.57825 -0.52314,5.01493 0.38281,0.20975 0.48561,0.33733 0.9391,0.31292 0.15941,-0.009 0.55458,-0.24711 0.46493,-0.115 -0.26627,0.39237 -0.82267,0.54738 -1.04323,0.96715 -0.17878,0.34028 1.40176,-0.4212 1.09683,-0.35598 0.12313,-0.19055 0.29501,-0.35732 0.36938,-0.57165 0.66829,-1.92609 -1.21613,-3.93996 -2.27407,-5.28965 -1.81701,-2.06271 -4.17906,-3.8249 -4.46745,-6.75254 0.0501,-0.43969 0.0404,-0.89043 0.15041,-1.31906 0.76459,-2.97786 3.94306,-4.56724 6.584,-5.56079 0.52622,-0.0958 1.045,-0.25132 1.57864,-0.28724 2.75899,-0.18571 4.64725,1.19915 5.19262,3.88905 -0.008,0.45976 0.0314,0.92292 -0.025,1.37929 -0.29073,2.35308 -1.69487,4.40561 -3.23869,6.12131 0,0 -2.96568,-0.96603 -2.96568,-0.96603 z"
       inkscape:connector-curvature="0"
       transform="translate(0,308.2677)" />
    <path
       style="fill:#000000"
       id="path3577"
       d="m 863.33495,515.43869 c -2.05856,0.9089 -2.72982,2.11138 -3.80295,4.53681 -0.40415,1.40902 -1.24643,4.51159 0.39217,5.541 0.17498,0.10993 0.40035,0.10265 0.60053,0.15397 1.53878,-0.24074 2.9567,-1.21688 3.93777,-2.41388 0.051,-0.0622 -0.11927,-0.15709 -0.0804,-0.2275 0.29246,-0.52978 0.68728,-0.99621 1.03092,-1.49431 1.0696,-2.08219 2.06746,-4.83723 0.67297,-7.03705 -0.17865,-0.28181 -0.44146,-0.50045 -0.66219,-0.75068 -0.57358,-0.76873 -1.70241,-0.66693 -2.39874,-1.20995 -0.30773,-0.23998 -0.39191,-0.81625 -0.77769,-0.87511 -0.37411,-0.0571 -0.6382,0.40692 -0.95729,0.61038 0,0 -0.031,-0.18027 -0.031,-0.18027 l 0,0 c 0.33527,-0.24047 0.69706,-0.44771 1.0058,-0.72141 0.53457,-0.47389 0.8907,-1.16972 1.51638,-1.51448 1.66749,-0.91882 3.56354,0.26501 4.84758,1.19297 0.39158,0.47626 0.85381,0.90232 1.17474,1.42877 1.90183,3.11973 0.96161,6.86095 -0.56228,9.89487 -0.40708,0.62632 -0.73098,1.31536 -1.22124,1.87894 -1.90052,2.18475 -4.77203,4.92356 -7.97898,4.76135 -0.56043,-0.0283 -1.09064,-0.26468 -1.63596,-0.39702 -0.42616,-0.30902 -0.91142,-0.54974 -1.27849,-0.92706 -2.01189,-2.06813 -1.5072,-5.41338 -0.93918,-7.92374 0.20392,-0.57954 0.36681,-1.1752 0.61174,-1.73863 1.2617,-2.90234 3.68422,-5.09266 6.65784,-6.15852 0,0 -0.12207,3.57055 -0.12207,3.57055 z"
       inkscape:connector-curvature="0"
       transform="translate(0,308.2677)" />
    <path
       style="fill:#000000"
       id="path3614"
       d="m 243.58107,120.2901 c -0.21113,4.00607 -0.0183,8.02068 0.17223,12.02365 0.15058,3.13723 0.38556,6.27006 0.73254,9.39166 -0.0183,1.0493 0.46625,2.12369 0.32445,3.16965 -0.5704,0.74482 -1.55684,1.00961 -2.35445,1.4634 0,0 -0.18127,0.0245 -0.18127,0.0245 l 0,0 c -0.80459,0.26226 -1.7944,0.81433 -2.57869,0.30428 -0.49555,-1.07876 -0.34323,-2.34997 -0.53648,-3.49795 -0.24262,-3.21374 -0.39216,-6.4337 -0.49665,-9.65475 -0.14234,-4.09357 -0.29927,-8.18827 -0.31064,-12.28474 0,0 5.22896,-0.93971 5.22896,-0.93971 z"
       inkscape:connector-curvature="0"
       transform="translate(0,308.2677)" />
    <path
       style="fill:#000000"
       id="path3616"
       d="m 262.54938,135.45885 c -2.61264,0.31848 -5.06459,1.20521 -7.41128,2.3625 -0.96665,0.57807 -1.20347,0.68157 -2.08538,1.35389 -0.2933,0.22359 -1.17956,0.87604 -0.85297,0.7047 0.40577,-0.21289 0.70363,-0.59267 1.09469,-0.83152 0.41109,-0.25108 -0.71358,0.64828 -1.0481,0.99489 -0.40357,0.48133 -0.83802,0.8993 -0.43098,1.4683 1.19693,1.11382 2.87619,1.19484 4.42433,1.23493 2.35681,-0.14263 4.67673,-0.68767 6.88885,-1.50049 0.22756,-0.0877 0.4568,-0.17109 0.68266,-0.26303 2.01384,-0.81974 0.04,0.67508 0.3397,1.32252 0.17884,0.3863 0.84897,0.064 1.27345,0.096 0,0 0.18172,0.0208 0.18172,0.0208 l 0,0 c 0.3345,0.22037 1.0069,0.26056 1.00349,0.66111 -0.006,0.72745 -0.65756,1.29891 -1.02554,1.92646 -0.59148,1.00869 -1.56852,1.36704 -2.64153,1.68165 -2.71258,0.75505 -5.49622,1.34627 -8.32988,1.21323 -2.78337,-0.30329 -5.45904,-0.99756 -7.26903,-3.30384 -1.32492,-2.14388 -1.50745,-3.73619 -0.29104,-5.99804 1.91524,-2.77908 4.83296,-4.6843 7.89238,-6.01467 2.75419,-1.05229 5.59717,-1.84128 8.55882,-1.99788 0,0 -0.95436,4.86852 -0.95436,4.86852 z"
       inkscape:connector-curvature="0"
       transform="translate(0,308.2677)" />
    <path
       style="fill:#000000"
       id="path3618"
       d="m 264.52624,117.2068 c 0.003,3.82648 0.58964,7.61408 1.30525,11.36231 0.67596,3.27379 1.65608,6.46724 2.84178,9.58918 0.13617,0.71007 1.2695,2.33288 0.93338,3.06142 -0.0717,0.15546 -0.21297,0.26815 -0.31945,0.40222 -0.20913,0.15006 -0.41826,0.30012 -0.62739,0.45017 0,0 -2.58316,1.1546 -2.58316,1.1546 l 0,0 c -0.23789,0.0593 -0.47579,0.11855 -0.71369,0.17783 -0.15233,-0.006 -0.31272,0.0299 -0.45701,-0.0194 -0.60106,-0.20527 -0.85489,-2.35013 -1.17805,-2.83463 -1.17627,-3.35765 -2.12151,-6.79426 -2.77399,-10.29367 -0.72249,-3.97797 -1.26494,-7.99277 -1.34026,-12.0416 0,0 4.91259,-1.00841 4.91259,-1.00841 z"
       inkscape:connector-curvature="0"
       transform="translate(0,308.2677)" />
    <path
       style="fill:#000000"
       id="path3620"
       d="m 273.29596,130.55266 c 2.15822,-1.46895 4.52137,-2.44827 7.09932,-2.8221 2.76077,-0.11726 4.6261,1.01109 6.36408,3.04486 1.53358,2.14173 1.51448,4.56599 1.07152,7.04844 -0.50362,2.3503 -1.57194,4.42417 -3.16321,6.20756 -2.41163,2.27973 -4.36787,3.12516 -7.52696,3.45617 -1.98633,0.1191 -3.65939,-0.58968 -5.10547,-1.90119 -1.15934,-1.2304 -1.6411,-2.75891 -1.81595,-4.40175 -0.1235,-2.60615 0.99644,-4.56529 3.67465,-5.51209 1.89364,-0.5832 3.86798,-0.77875 5.84046,-0.73168 2.3387,0.12486 4.42136,1.11853 6.44183,2.21428 1.06375,0.82388 2.93768,1.12811 3.57036,2.44216 0.10377,0.21553 0.12694,0.46127 0.1904,0.69191 -0.23806,1.40144 -0.62698,1.14655 0.16783,1.38485 0,0 -0.0814,0.1638 -0.0814,0.1638 l 0,0 c -0.85624,-0.26028 -0.28604,-0.20578 -1.51342,0.81389 -0.29301,0.0762 -0.57788,0.19745 -0.87903,0.22854 -1.56562,0.16158 -2.87045,-1.12354 -4.19229,-1.73448 -1.53905,-0.80697 -3.1082,-1.55789 -4.89247,-1.5077 -1.42941,0.0716 -2.94974,0.21849 -4.20217,0.96731 -0.38902,0.62462 -1.15471,1.81815 1.31933,-1.27464 1.2e-4,-1.6e-4 -0.33985,-0.19539 -0.46526,0.24547 -0.032,0.11253 -0.0399,0.23055 -0.0599,0.34583 -0.003,0.70396 0.0836,1.41593 0.5287,1.98986 0.62517,0.59158 1.45943,0.59247 2.27268,0.45814 0.9147,-0.17295 1.77424,-0.42402 2.57721,-0.91265 0.19658,-0.11963 0.72342,-0.56223 0.56772,-0.39278 -0.35118,0.3822 -0.77376,0.69204 -1.16064,1.03806 1.52954,-1.02428 2.36297,-2.32323 2.94933,-4.07059 0.41645,-1.38209 0.82338,-2.82737 0.0903,-4.1795 -0.77671,-1.11129 -1.78411,-1.61285 -3.16074,-1.38194 -2.03212,0.48708 -3.88371,1.47216 -5.48571,2.81693 0,0 -1.02116,-4.73497 -1.02116,-4.73497 z"
       inkscape:connector-curvature="0"
       transform="translate(0,308.2677)" />
    <path
       style="fill:#000000"
       id="path3622"
       d="m 296.65077,126.32488 c 0.23148,4.57801 0.77477,9.13537 1.2692,13.69087 0.45498,3.8932 0.82995,7.80045 1.52105,11.6611 0.44906,2.30692 0.82761,3.07472 -3.40541,2.86636 -0.39886,-0.0196 0.42256,-0.67774 0.63383,-1.01662 -0.0119,-0.26159 -0.0239,-0.52318 -0.0358,-0.78478 0,0 0.16268,-0.0836 0.16268,-0.0836 l 0,0 c 0.16444,0.17556 0.32888,0.35112 0.49332,0.52668 0.3489,-0.0341 1.35038,-0.27748 1.04671,-0.10231 -3.73438,2.15413 -3.35512,2.33805 -3.45621,-0.0812 -0.19871,-3.9488 -0.67155,-7.87677 -1.07307,-11.80841 -0.49329,-4.59897 -1.04095,-9.19229 -1.48733,-13.79597 0,0 4.33106,-1.07212 4.33106,-1.07212 z"
       inkscape:connector-curvature="0"
       transform="translate(0,308.2677)" />
    <path
       style="fill:#000000"
       id="path3630"
       d="m 685.49101,126.18314 c -0.15243,1.78424 -0.22594,3.57586 -0.23326,5.36652 0.0445,2.20252 0.77845,1.31506 -2.95897,1.13258 0.34303,-0.31491 0.45451,-0.76158 0.62321,-1.17873 0.36051,-0.85679 0.89979,-1.62154 1.44668,-2.36744 0.95441,-1.25697 2.08158,-2.3718 3.40216,-3.24804 0.81436,-0.54488 1.72439,-0.91161 2.6235,-1.28855 0.7721,-0.33065 1.59409,-0.48233 2.43,-0.50121 1.06552,0.0397 1.9034,0.47323 2.63242,1.22819 0.71231,0.92539 0.89805,2.05102 1.01151,3.18041 0.0811,1.04153 0.0823,2.08663 0.06,3.13034 -0.008,0.71983 -0.0535,1.43869 -0.0632,2.15833 -0.0346,0.21208 0.038,0.40004 0.0852,0.59955 -4.20594,0.32959 -3.81732,0.89165 -3.79922,-1.44058 -0.0328,-0.98164 0.15507,-1.93687 0.44145,-2.87005 0.34098,-0.96587 0.85518,-1.86164 1.46938,-2.6781 0.96002,-1.28263 2.24633,-2.10633 3.67879,-2.70748 0.86539,-0.40026 1.79231,-0.5871 2.74132,-0.58572 1.12257,0.0361 2.01841,0.55837 2.78421,1.34461 0.7772,0.95972 0.94278,2.15097 0.98864,3.34436 0.0357,0.87032 -0.0993,1.73107 -0.19968,2.59218 -0.0228,0.54344 0.006,1.04987 -0.36925,1.47909 -0.53051,0.52094 -1.14412,0.38072 -1.82752,0.33151 0,0 -0.17745,-0.0444 -0.17745,-0.0444 l 0,0 c -0.4269,-0.15483 -0.92684,-0.43578 -1.39586,-0.35822 -0.0429,-0.006 -0.0881,-0.0338 -0.12875,-0.0186 -0.0231,0.009 -0.005,0.0949 -0.0148,0.0723 -0.13054,-0.29718 0.12921,-0.69596 0.0846,-1.00055 0.0886,-0.75659 0.23732,-1.50463 0.30194,-2.2639 0.017,-0.5432 0.0478,-1.0996 -0.0565,-1.63589 -0.15669,-0.25694 -0.47514,-0.21192 -0.73915,-0.17956 -0.60406,0.1433 -1.17295,0.36898 -1.71567,0.67429 -0.31149,0.18683 -0.58753,0.37872 -0.86278,0.61575 -0.0902,0.0777 -0.35666,0.31586 -0.26865,0.2356 1.04164,-0.94999 1.4119,-1.21566 0.78624,-0.74723 -0.5332,0.484 -0.93739,1.06742 -1.28846,1.69648 -0.27403,0.61728 -0.49228,1.25522 -0.49613,1.93989 0.0126,2.33554 0.36465,1.67129 -3.79173,2.08718 0.0866,0.22369 0.18513,0.006 0.22427,-0.12328 0.18939,-0.61294 0.22415,-1.25847 0.24122,-1.89627 0.0339,-0.95678 0.0466,-1.91426 0.006,-2.8712 -0.0353,-0.5966 -0.0648,-1.20418 -0.26354,-1.77332 -0.13816,-0.21877 -0.4894,-0.14709 -0.70608,-0.11664 -0.57749,0.13818 -1.12395,0.34811 -1.656,0.61483 -0.72753,0.33771 -1.44248,0.70704 -2.05842,1.22895 -0.82983,0.72105 0.21718,-0.18648 0.5394,-0.48712 0.10128,-0.0945 -0.21755,0.17175 -0.32128,0.26354 -0.0652,0.0576 -0.56467,0.53738 -0.62508,0.60412 -0.10356,0.11441 -0.19438,0.23971 -0.29157,0.35957 -0.4745,0.55854 -0.9157,1.14107 -1.30144,1.76475 -0.30766,0.60964 -0.45001,1.28493 -0.83671,1.8564 -4.23411,0.55548 -3.62824,1.25609 -3.65448,-1.51361 0.0391,-1.82586 0.15757,-3.64804 0.20999,-5.47337 0,0 3.28949,-0.53232 3.28949,-0.53232 z"
       inkscape:connector-curvature="0"
       transform="translate(0,308.2677)" />
    <path
       style="fill:#000000"
       id="path3632"
       d="m 710.50651,124.68315 c -0.093,2.32838 -0.14964,4.66294 0.15774,6.97695 0.14948,0.68593 0.41982,2.07989 1.40709,1.88893 0.0516,-0.0525 0.10683,-0.10172 0.15491,-0.1575 0.16143,-0.1873 0.30537,-0.389 0.45844,-0.5832 0.12403,-0.15736 0.5523,-0.55905 0.37165,-0.47241 -0.60273,0.28907 -1.48741,1.43911 -0.38019,0.10348 1.07547,-1.4375 1.53794,-3.13801 1.76895,-4.88851 0.14855,-1.16493 0.0775,-2.33815 0.0643,-3.50756 0.61605,1.15538 0.11308,0.22013 3.96871,-0.47024 0.035,-0.006 -0.0649,0.0412 -0.0759,0.075 -0.0435,0.13309 -0.0657,0.27284 -0.0833,0.41176 -0.0262,0.20704 -0.032,0.41615 -0.0479,0.62423 -0.17088,2.42583 0.0825,4.85095 0.37077,7.257 0.26751,2.31766 0.79424,4.58438 1.40248,6.83111 0.77427,2.79693 -0.80007,4.32689 -3.59662,5.15777 -2.63699,0.60044 -5.32101,0.98285 -7.98592,1.44197 -2.63056,0.41276 -5.25363,0.88069 -7.82019,1.59637 -1.75919,0.52095 -1.7951,0.0834 -2.03253,-1.60261 0,0 -0.0103,-0.18262 -0.0103,-0.18262 l 0,0 c 0.14332,-2.01154 0.40664,-2.558 2.40911,-3.11502 2.67815,-0.63554 5.40211,-1.03561 8.11746,-1.47546 2.45615,-0.38056 4.95592,-0.6328 7.35079,-1.31228 1.18103,-0.59264 -0.25029,0.0822 -0.97321,0.99399 -0.0818,0.10317 0.82369,1.10919 0.5136,0.002 -0.41719,-2.38994 -0.92221,-4.76394 -1.26263,-7.16715 -0.34158,-2.56115 -0.66391,-5.13526 -0.60738,-7.72496 0.005,-0.19371 -0.0811,-2.03767 0.10001,-2.12265 3.16106,-1.48282 3.85919,-2.40284 4.3706,-0.2607 0.15272,1.35044 0.1285,2.71311 0.0317,4.06707 -0.26469,2.22629 -0.72231,4.41465 -1.89212,6.3647 -1.49184,2.32259 -3.68099,4.52461 -6.61317,3.89821 -2.0505,-0.92785 -2.92977,-2.30101 -3.33061,-4.50953 -0.30384,-2.44818 -0.26483,-4.90323 -0.26254,-7.36654 0,0 3.95631,-0.77204 3.95631,-0.77204 z"
       inkscape:connector-curvature="0"
       transform="translate(0,308.2677)" />
    <path
       style="fill:#000000"
       id="path3634"
       d="m 730.76851,123.72895 c -0.27499,0.13599 -0.55428,0.2636 -0.82496,0.40797 -0.92426,0.49296 -1.78647,1.07042 -2.6051,1.72356 -0.22964,0.18322 -0.95158,0.66081 -0.67221,0.56994 0.29665,-0.0965 0.48534,-0.39206 0.72801,-0.58809 -0.90655,0.80284 -0.65317,0.79643 -0.94487,-0.17739 1.08312,0.54763 2.13817,1.14113 3.14484,1.81908 1.2974,0.86924 2.27886,2.00471 2.78611,3.48084 0.42791,2.6199 -1.5758,4.2474 -3.69761,5.45997 -1.64081,0.87568 -3.42618,1.08746 -5.25359,0.9879 -1.76556,-0.2855 -2.64609,-0.44158 -2.44021,-2.41771 0.007,-0.14342 0.0146,-0.28683 0.022,-0.43024 0,0 0.0963,-0.15552 0.0963,-0.15552 l 0,0 c 0.12802,-0.0889 0.25603,-0.17778 0.38405,-0.26667 1.13702,-0.99384 1.6105,-1.15473 3.09947,-1.04371 1.25168,-0.056 2.45159,-0.35428 3.55279,-0.97167 1.18431,-0.73017 0.0445,-0.0865 -0.38626,0.61545 -0.0868,0.14146 0.30366,-0.13409 0.45603,-0.19989 0.19402,-0.0838 0.39648,-0.14843 0.58629,-0.24137 0.0607,-0.0297 0.11446,-0.072 0.17169,-0.10798 0.22333,-0.89211 -0.89073,-1.5555 -1.47459,-2.01243 -1.14075,-0.70318 -2.38992,-1.15747 -3.54326,-1.83308 -1.4203,-1.37846 -1.4649,-2.60212 -0.0484,-3.97216 2.07432,-1.77668 4.17262,-3.48433 6.71246,-4.56563 0,0 0.15109,3.91883 0.15109,3.91883 z"
       inkscape:connector-curvature="0"
       transform="translate(0,308.2677)" />
    <path
       style="fill:#000000"
       id="path3636"
       d="m 743.13532,123.72665 c -2.34141,0.27954 -4.31822,0.97579 -6.01283,2.63904 0.25789,-0.18152 0.51951,-0.73129 0.77366,-0.54457 0.24102,0.17707 -0.38331,0.46059 -0.54978,0.70905 -0.57637,0.86028 -0.87205,1.80595 -1.02915,2.81769 0.0577,0.57142 -0.0728,0.55129 0.29065,0.40682 0.22556,-0.0897 0.46488,-0.13998 0.69591,-0.21443 0.87999,-0.33862 2.876,-1.34877 3.37267,-2.08695 0.15735,-0.23386 -0.44805,0.34212 -0.67207,0.51317 1.13808,-0.95297 2.04929,-2.12354 2.787,-3.40398 0.32375,-0.64177 0.59068,-1.32129 0.51132,-2.04983 -0.069,-0.49715 0.48416,1.14314 1.51746,0.84995 0.8405,-0.23848 2.34206,-2.05717 1.55272,-1.11811 -0.93629,2.23783 -1.07475,4.74563 -1.29928,7.13522 -0.30499,3.67296 -0.37735,7.36264 -0.1714,11.04223 -0.19686,0.14162 0.36028,1.84155 0.11773,2.04088 -0.11826,0.0972 -0.30873,-0.003 -0.45824,0.0299 -0.46312,0.10171 -0.91527,0.24817 -1.37291,0.37225 0,0 0.18274,-0.008 0.18274,-0.008 l 0,0 c -0.5201,0.39905 -0.9533,0.94957 -1.5603,1.19714 -1.03552,0.42236 -0.89135,-2.44171 -0.89976,-2.72024 -0.0297,-3.79791 0.024,-7.59674 0.26062,-11.38848 0.19461,-2.71825 0.33883,-5.48299 1.10464,-8.11355 1.06093,-3.1579 4.07516,-3.59591 5.00348,-0.56622 0.20267,1.29891 0.0761,2.59208 -0.46006,3.80573 -0.74451,1.67591 -1.77631,3.20235 -3.07435,4.50395 -2.20545,1.84217 -4.36887,3.79416 -7.34719,4.11266 -2.56968,-0.13004 -4.02937,-1.04638 -4.27308,-3.75463 0.0867,-1.68409 0.60848,-4.14631 1.74924,-5.44417 0.71041,-0.80824 1.5441,-1.49915 2.31614,-2.24872 2.33611,-1.57248 4.93749,-2.4612 7.7574,-2.67868 0,0 -0.81298,4.16491 -0.81298,4.16491 z"
       inkscape:connector-curvature="0"
       transform="translate(0,308.2677)" />
    <path
       style="fill:#000000"
       id="path3638"
       d="m 754.76842,111.54839 c -0.47187,3.29984 -0.80538,6.61641 -1.0433,9.94068 -0.1293,2.36075 -0.24198,4.7562 0.20227,7.09151 0.0996,0.49752 0.2343,0.9439 0.71084,1.15767 0.52083,0.11179 0.95895,-0.15462 1.43514,-0.33302 1.38635,-0.5215 2.69858,-1.23007 4.09174,-1.72891 0.85014,-0.12282 1.19987,0.61057 1.64244,1.20525 0,0 0.16839,0.0714 0.16839,0.0714 l 0,0 c -0.25892,1.23213 -0.38212,2.48725 -1.39611,3.35672 -1.53851,1.02259 -3.30682,1.69372 -5.10799,2.08942 -1.48868,0.15406 -2.87022,-0.0309 -4.05398,-1.02353 -0.98362,-0.88735 -1.68342,-1.9326 -1.93773,-3.25682 -0.47943,-2.62171 -0.41702,-5.29522 -0.25087,-7.94638 0.24797,-3.348 0.54951,-6.6905 0.88337,-10.03091 0,0 4.65579,-0.59311 4.65579,-0.59311 z"
       inkscape:connector-curvature="0"
       transform="translate(0,308.2677)" />
    <path
       style="fill:#000000"
       id="path3640"
       d="m 293.00475,127.62779 c 2.66483,-0.90788 5.34447,-1.7483 8.09046,-2.37403 2.15998,-0.49976 4.31167,-0.68326 6.46616,-0.12358 1.58593,0.55217 2.61812,1.65418 3.186,3.20173 0.42684,1.87259 -0.3704,3.60523 -1.1812,5.24979 -1.38286,2.72021 -3.61327,4.68686 -5.85692,6.68341 -1.7007,1.34254 -3.68584,2.10456 -5.74322,2.69226 -1.24204,0.27756 -2.10126,0.62871 -2.29632,-0.91017 -0.0344,-0.27942 -0.0688,-0.55884 -0.10321,-0.83827 0,0 0.56409,-1.19403 0.56409,-1.19403 l 0,0 c 0.0133,-0.26646 0.0266,-0.53292 0.04,-0.79939 0.407,-1.22564 0.80426,-1.50003 2.06556,-1.77762 1.53124,-0.47253 3.002,-1.12819 4.24063,-2.16617 -0.29525,0.29157 -0.77088,0.47598 -0.88573,0.87472 -0.0964,0.33472 0.55307,-0.42397 0.82027,-0.64745 0.74284,-0.62129 1.43588,-1.29297 2.05924,-2.03412 0.19002,-0.22592 0.36897,-0.46094 0.55345,-0.6914 0.61802,-0.85701 1.17058,-1.75427 1.60326,-2.71644 0.0673,-0.5255 -0.41787,-0.73915 -0.85817,-0.87666 -1.68998,-0.32128 -3.40227,0.0834 -5.06039,0.42041 -2.62869,0.6422 -5.20679,1.46748 -7.72464,2.46107 0,0 0.0207,-4.43406 0.0207,-4.43406 z"
       inkscape:connector-curvature="0"
       transform="translate(0,308.2677)" />
    <path
       style="fill:#000000"
       id="path3642"
       d="m 634.94611,641.08182 c 1.92655,-3.1795 4.02142,-6.25192 6.15985,-9.29155 0.95011,-1.3913 2.43738,-2.07603 3.85787,-2.87389 0,0 0.28925,0.0796 0.28925,0.0796 l 0,0 c -0.0912,1.26494 -0.025,2.44102 -0.79748,3.53367 -2.00948,3.1429 -4.12837,6.21016 -6.3029,9.24098 0,0 -3.20659,-0.68882 -3.20659,-0.68882 z"
       inkscape:connector-curvature="0"
       transform="translate(0,308.2677)" />
    <path
       style="fill:#000000"
       id="path3644"
       d="m 667.6292,606.77482 c 2.45659,-2.72867 4.75781,-5.64799 7.67088,-7.92218 0.66044,-0.5156 4.14524,-2.81495 4.91903,-3.3295 0,0 0.28529,0.0928 0.28529,0.0928 l 0,0 c -0.24935,0.58978 -1.5994,3.81597 -1.86401,4.30091 -1.65165,3.02682 -4.13747,5.49178 -6.14977,8.26256 0,0 -4.86142,-1.40458 -4.86142,-1.40458 z"
       inkscape:connector-curvature="0"
       transform="translate(0,308.2677)" />
    <path
       style="fill:#000000"
       id="path3646"
       d="m 713.26695,576.05612 c 0.64519,-0.52509 1.29039,-1.05018 1.93559,-1.57527 0.96509,-0.61085 1.98385,-1.14419 2.89528,-1.83254 0.92977,-0.70221 1.73993,-1.55015 2.6099,-2.32522 0,0 0.27983,0.10813 0.27983,0.10813 l 0,0 c -0.77613,0.80928 -1.64551,1.53846 -2.32839,2.42783 -0.99936,1.30154 -1.39724,3.01143 -2.66253,4.1407 0,0 -2.72968,-0.94363 -2.72968,-0.94363 z"
       inkscape:connector-curvature="0"
       transform="translate(0,308.2677)" />
    <path
       style="fill:#000000"
       id="path3648"
       d="m 794.89779,503.40522 c 3.44365,-3.70223 6.74425,-7.56333 10.51002,-10.95169 1.19226,-1.07277 7.5769,-6.2986 8.76281,-7.27367 0,0 0.28371,0.0975 0.28371,0.0975 l 0,0 c -1.90312,2.76587 -3.69851,5.60886 -5.70637,8.29966 -2.91845,3.9111 -6.35283,7.41243 -9.40776,11.21275 0,0 -4.44241,-1.38456 -4.44241,-1.38456 z"
       inkscape:connector-curvature="0"
       transform="translate(0,308.2677)" />
    <path
       style="fill:#000000"
       id="path3650"
       d="m 847.46764,456.64101 c 3.33129,-3.53952 6.74744,-7.19386 10.82133,-9.90394 1.39862,-0.9304 2.88087,-1.72849 4.32131,-2.59274 1.01193,-0.40641 2.02386,-0.81282 3.03579,-1.21923 0,0 0.0648,0.29292 0.0648,0.29292 l 0,0 c -0.85553,1.05221 -1.71106,2.10442 -2.56658,3.15663 -0.39571,0.64328 -0.70735,1.34656 -1.18711,1.92984 -0.70345,0.85522 -1.55147,1.58061 -2.33991,2.35818 -2.5398,2.50481 -5.12981,4.95849 -7.61164,7.52198 0,0 -4.53799,-1.54364 -4.53799,-1.54364 z"
       inkscape:connector-curvature="0"
       transform="translate(0,308.2677)" />
    <path
       style="fill:#000000"
       id="path3652"
       d="m 893.33899,422.40412 c 4.44383,-4.41609 9.25751,-8.41835 14.23038,-12.21931 4.92276,-3.62799 10.0809,-6.91883 14.52108,-11.14073 1.54711,-1.40846 2.86542,-3.03697 4.29575,-4.55571 0.43367,-0.46048 0.93635,-0.85693 1.33828,-1.34536 0.0416,-0.0506 -0.12677,-0.0332 -0.19015,-0.0499 0.48604,-0.50305 0.97207,-1.00611 1.45811,-1.50917 4.77869,-4.37656 9.77375,-8.51126 14.84163,-12.54744 2.52737,-2.08368 5.26989,-3.85672 8.15386,-5.39903 0.64762,-0.34635 1.25455,-0.79357 1.9536,-1.01873 0.70798,-0.22805 1.47205,-0.21451 2.20808,-0.32176 0.78192,-0.29303 1.56384,-0.58605 2.34576,-0.87908 0,0 0.0494,0.2959 0.0494,0.2959 l 0,0 c -0.71092,0.70575 -1.42184,1.41151 -2.13276,2.11727 -0.60247,0.79885 -1.13874,1.65222 -1.80741,2.39654 -0.53858,0.5995 -1.20124,1.07468 -1.7978,1.61652 -2.51294,2.28242 -5.0389,4.5463 -7.7133,6.64164 -3.7648,3.04551 -7.52849,6.08513 -11.22931,9.20812 -2.19751,1.58752 -4.21648,3.46316 -6.53807,4.86594 -0.59327,0.35847 -2.47125,1.2672 -3.06729,1.57684 -0.58711,0.30499 -1.16655,0.62452 -1.74982,0.93679 -5.24702,2.94734 -9.90076,6.78264 -14.63569,10.47772 -4.47285,3.59392 -8.90264,7.26497 -12.82501,11.46904 0,0 -1.70937,-0.61614 -1.70937,-0.61614 z"
       inkscape:connector-curvature="0"
       transform="translate(0,308.2677)" />
    <path
       style="fill:#000000"
       id="path3654"
       d="m 981.70145,349.62736 c 2.6092,-3.63701 5.78058,-6.87139 9.60944,-9.25247 0.72549,-0.45116 1.58713,-0.63287 2.38069,-0.94931 3.49051,0.51796 1.83827,0.80788 4.9538,-0.88628 0,0 0.0302,0.29847 0.0302,0.29847 l 0,0 c -3.42509,1.86833 -1.86194,0.5225 -4.31788,4.43261 -2.43763,2.49939 -4.99825,4.90783 -7.12764,7.72193 0,0 -5.52866,-1.36495 -5.52866,-1.36495 z"
       inkscape:connector-curvature="0"
       transform="translate(0,308.2677)" />
  </g>
</svg>
