<?xml version="1.0" encoding="UTF-8" standalone="no"?>
<!DOCTYPE svg PUBLIC "-//W3C//DTD SVG 1.1//EN"
 "http://www.w3.org/Graphics/SVG/1.1/DTD/svg11.dtd">
<!-- Generated by graphviz version 2.30.1 (20130712.1527)
 -->
<!-- Title: User Pages: 1 -->
<svg width="210pt" height="401pt"
 viewBox="0.00 0.00 210.00 401.00" xmlns="http://www.w3.org/2000/svg" xmlns:xlink="http://www.w3.org/1999/xlink">
<g id="graph0" class="graph" transform="scale(1 1) rotate(0) translate(4 397)">
<title>User</title>
<polygon fill="white" stroke="white" points="-4,5 -4,-397 207,-397 207,5 -4,5"/>
<g id="clust1" class="cluster"><title>cluster0</title>
<polygon fill="none" stroke="black" points="8,-76 8,-319 161,-319 161,-76 8,-76"/>
<text text-anchor="middle" x="84.5" y="-303.8" font-family="Cantarell" font-size="14.00">Created</text>
</g>
<!-- deleted -->
<g id="node1" class="node"><title>deleted</title>
<ellipse fill="none" stroke="black" cx="168" cy="-18" rx="34.2095" ry="18"/>
<text text-anchor="middle" x="168" y="-14.9" font-family="Cantarell" font-size="12.00">deleted</text>
</g>
<!-- start -->
<!-- new -->
<g id="node3" class="node"><title>new</title>
<ellipse fill="none" stroke="black" cx="107" cy="-270" rx="27" ry="18"/>
<text text-anchor="middle" x="107" y="-266.9" font-family="Cantarell" font-size="12.00">new</text>
</g>
<!-- start&#45;&gt;new -->
<g id="edge1" class="edge"><title>start&#45;&gt;new</title>
<path fill="none" stroke="black" d="M107,-356.992C107,-341.038 107,-316.913 107,-298.272"/>
<polygon fill="black" stroke="black" points="110.5,-298.034 107,-288.034 103.5,-298.034 110.5,-298.034"/>
<text text-anchor="middle" x="133" y="-330.5" font-family="Cantarell" font-size="10.00">user&#45;create</text>
</g>
<!-- active -->
<g id="node4" class="node"><title>active</title>
<ellipse fill="none" stroke="black" cx="95" cy="-186" rx="28.4001" ry="18"/>
<text text-anchor="middle" x="95" y="-182.9" font-family="Cantarell" font-size="12.00">active</text>
</g>
<!-- new&#45;&gt;active -->
<g id="edge2" class="edge"><title>new&#45;&gt;active</title>
<path fill="none" stroke="black" d="M104.514,-252.01C102.905,-241.015 100.775,-226.463 98.9389,-213.916"/>
<polygon fill="black" stroke="black" points="102.394,-213.356 97.4832,-203.969 95.4682,-214.37 102.394,-213.356"/>
<text text-anchor="middle" x="134" y="-225.5" font-family="Cantarell" font-size="10.00">set&#45;password</text>
</g>
<!-- new&#45;&gt;deleted -->
<!-- locked -->
<g id="node5" class="node"><title>locked</title>
<ellipse fill="none" stroke="black" cx="100" cy="-102" rx="31.0934" ry="18"/>
<text text-anchor="middle" x="100" y="-98.9" font-family="Cantarell" font-size="12.00">locked</text>
</g>
<!-- active&#45;&gt;locked -->
<g id="edge3" class="edge"><title>active&#45;&gt;locked</title>
<path fill="none" stroke="black" d="M69.8413,-177.2C49.0108,-169.298 24.415,-155.722 35,-138 41.2523,-127.532 51.834,-120.011 62.6639,-114.692"/>
<polygon fill="black" stroke="black" points="64.3705,-117.766 72.1425,-110.566 61.5765,-111.348 64.3705,-117.766"/>
<text text-anchor="middle" x="56.5" y="-141.5" font-family="Cantarell" font-size="10.00">user&#45;lock</text>
</g>
<!-- active&#45;&gt;deleted -->
<!-- locked&#45;&gt;active -->
<g id="edge4" class="edge"><title>locked&#45;&gt;active</title>
<path fill="none" stroke="black" d="M98.9481,-120.251C98.2855,-131.118 97.4157,-145.382 96.6613,-157.755"/>
<polygon fill="black" stroke="black" points="93.1512,-157.815 96.036,-168.01 100.138,-158.241 93.1512,-157.815"/>
<text text-anchor="middle" x="124.5" y="-141.5" font-family="Cantarell" font-size="10.00">user&#45;unlock</text>
</g>
<!-- locked&#45;&gt;deleted -->
<g id="edge7" class="edge"><title>locked&#45;&gt;deleted</title>
<path fill="none" stroke="black" d="M96.4665,-76.2783C96.5313,-68.64 97.8816,-60.5273 102,-54 108.316,-43.9891 118.517,-36.6677 129.031,-31.3905"/>
<polygon fill="black" stroke="black" points="130.56,-34.5406 138.26,-27.263 127.702,-28.1505 130.56,-34.5406"/>
<text text-anchor="middle" x="128" y="-57.5" font-family="Cantarell" font-size="10.00">user&#45;delete</text>
</g>
</g>
</svg>
